<svg width="24" height="24" viewBox="0 0 24 24" fill="none" xmlns="http://www.w3.org/2000/svg">
<path d="M11.2692 1.79172L1.68367 11.3773C1.29314 11.7678 1.29314 12.4009 1.68367 12.7915L11.2692 22.377C11.6597 22.7675 12.2929 22.7675 12.6834 22.377L22.269 12.7915C22.6595 12.4009 22.6595 11.7678 22.269 11.3773L12.6834 1.79172C12.2929 1.4012 11.6597 1.4012 11.2692 1.79172Z" stroke="#E27919" stroke-width="1.5" stroke-linecap="round" stroke-linejoin="round"/>
<path d="M12 13V7" stroke="#E27919" stroke-width="1.5" stroke-linecap="round" stroke-linejoin="round"/>
<path d="M11.9872 16.11C11.9549 16.111 11.923 16.1185 11.8936 16.1319C11.8641 16.1453 11.8376 16.1644 11.8155 16.1881C11.7935 16.2118 11.7764 16.2396 11.7652 16.27C11.754 16.3004 11.7489 16.3327 11.7502 16.365C11.7525 16.4301 11.7797 16.4918 11.8263 16.5374C11.8728 16.583 11.9351 16.609 12.0002 16.61H12.0092C12.0415 16.6088 12.0733 16.6013 12.1027 16.5879C12.1321 16.5744 12.1586 16.5553 12.1806 16.5316C12.2026 16.5079 12.2197 16.4802 12.231 16.4499C12.2422 16.4195 12.2474 16.3873 12.2462 16.355C12.2442 16.2905 12.2176 16.2292 12.1719 16.1836C12.1261 16.1381 12.0647 16.1118 12.0002 16.11" stroke="#E27919" stroke-width="1.5" stroke-linecap="round" stroke-linejoin="round"/>
<path d="M12.0002 16.11H11.9912" stroke="#E27919" stroke-width="1.5" stroke-linecap="round" stroke-linejoin="round"/>
</svg>
