<svg width="20" height="20" viewBox="0 0 20 20" fill="none" xmlns="http://www.w3.org/2000/svg">
<path d="M7.85686 15.3847C7.46258 15.3847 7.14258 15.0401 7.14258 14.6155V8.46161C7.14258 8.037 7.46258 7.69238 7.85686 7.69238C8.25115 7.69238 8.57115 8.037 8.57115 8.46161V14.6155C8.57115 15.0401 8.25115 15.3847 7.85686 15.3847Z" fill="#5E6673"/>
<path d="M12.142 15.3847C11.7477 15.3847 11.4277 15.0401 11.4277 14.6155V8.46161C11.4277 8.037 11.7477 7.69238 12.142 7.69238C12.5363 7.69238 12.8563 8.037 12.8563 8.46161V14.6155C12.8563 15.0401 12.5363 15.3847 12.142 15.3847Z" fill="#5E6673"/>
<path d="M5 20C3.8181 20 2.85714 18.9651 2.85714 17.6923V4.61538H0.714286C0.32 4.61538 0 4.27077 0 3.84615C0 3.42154 0.32 3.07692 0.714286 3.07692H5.71429V2.30769C5.71429 1.03487 6.67524 0 7.85714 0H12.1429C13.3248 0 14.2857 1.03487 14.2857 2.30769V3.07692H19.2857C19.68 3.07692 20 3.42154 20 3.84615C20 4.27077 19.68 4.61538 19.2857 4.61538H17.1429V17.6923C17.1429 18.9651 16.1819 20 15 20H5ZM4.28571 17.6923C4.28571 18.1169 4.60571 18.4615 5 18.4615H15C15.3943 18.4615 15.7143 18.1169 15.7143 17.6923V4.61538H4.28571V17.6923ZM12.8571 3.07692V2.30769C12.8571 1.88308 12.5371 1.53846 12.1429 1.53846H7.85714C7.46286 1.53846 7.14286 1.88308 7.14286 2.30769V3.07692H12.8571Z" fill="#5E6673"/>
</svg>
