<?xml version="1.0" encoding="UTF-8"?>
<svg width="51px" height="38px" viewBox="0 0 51 38" version="1.1" xmlns="http://www.w3.org/2000/svg" xmlns:xlink="http://www.w3.org/1999/xlink">
    <title>Group</title>
    <g id="Page-1" stroke="none" stroke-width="1" fill="none" fill-rule="evenodd">
        <g id="shutterstock_1445931200-(1)" transform="translate(-377.000000, -725.000000)">
            <g id="Group" transform="translate(377.823000, 725.919000)">
                <path d="M43.8352395,35.7617014 L6.1647605,35.7617014 C2.90627283,35.7617014 0.240146489,33.1105676 0.240146489,29.8704034 L0.240146489,6.13009411 C0.240146489,2.88992994 2.90627283,0.238298578 6.1647605,0.238298578 L43.8352395,0.238298578 C47.0937272,0.238298578 49.7598535,2.88992994 49.7598535,6.13009411 L49.7598535,29.8704034 C49.7598535,33.1105676 47.0937272,35.7617014 43.8352395,35.7617014" id="Fill-289" fill="#F7D35B"></path>
                <path d="M43.8352395,35.5229054 L33.3658532,35.5229054 C32.3217162,35.5229054 31.472198,34.6438373 31.472198,33.5627876 C31.472198,33.2976245 31.5232292,33.0394262 31.6222896,32.7971477 C32.6554198,30.2793417 33.2888062,27.4157788 33.5134432,24.2577008 L49.5202073,24.2577008 L49.5202073,29.8704034 C49.5202073,32.9876871 46.9701518,35.5229054 43.8352395,35.5229054 Z M49.5202073,23.7806061 L33.5444621,23.7806061 C33.5854871,23.0672029 33.6059997,22.3388748 33.6059997,21.5971145 L33.6059997,14.4028855 C33.6059997,13.7884831 33.5634737,12.7109158 33.5424609,12.2193939 L49.5202073,12.2193939 L49.5202073,23.7806061 Z M18.0430062,35.5229054 C18.6273627,35.0786452 19.0070943,34.3652419 19.0070943,33.5627876 C19.0070943,33.2349405 18.9445562,32.9165457 18.8214811,32.6160607 C17.5291928,29.4669375 16.873793,25.7596285 16.873793,21.5971145 L16.873793,14.4028855 C16.873793,10.2403715 17.5291928,6.53306248 18.8214811,3.38344181 C18.9445562,3.08345425 19.0070943,2.76555698 19.0070943,2.43721239 C19.0070943,1.63475809 18.6273627,0.921354836 18.0430062,0.477094648 L31.9569938,0.477094648 C31.372137,0.921354836 30.9929057,1.63475809 30.9929057,2.43721239 C30.9929057,2.76505949 31.0549435,3.08345425 31.1785189,3.38344181 C31.3981529,3.91973799 31.6017771,4.47692882 31.7838882,5.03959206 C31.8244129,5.16495999 31.9584947,5.23460885 32.0855722,5.19381452 C32.2116491,5.15351768 32.2811915,5.01919489 32.2406668,4.89382696 C32.0550536,4.3197214 31.8474269,3.75059077 31.6222896,3.20285229 C31.5232292,2.96057377 31.472198,2.70287302 31.472198,2.43721239 C31.472198,1.35666017 32.3217162,0.477094648 33.3658532,0.477094648 L43.8352395,0.477094648 C46.9701518,0.477094648 49.5202073,3.01281041 49.5202073,6.13009411 L49.5202073,11.7422992 L33.3873663,11.7422992 C33.2978117,11.7422992 33.2107586,11.7796111 33.1487207,11.8437876 C33.0861826,11.907964 33.0526621,11.997015 33.0566646,12.0880561 C33.0676713,12.3522242 33.126207,13.7054019 33.126207,14.4028855 L33.126207,21.5971145 C33.126207,25.759131 32.4708072,29.4669375 31.1785189,32.6165582 C31.0549435,32.9170432 30.9929057,33.235438 30.9929057,33.5627876 C30.9929057,34.3652419 31.372137,35.0786452 31.9569938,35.5229054 L18.0430062,35.5229054 Z M6.1647605,35.5229054 C3.02984821,35.5229054 0.479792674,32.9876871 0.479792674,29.8704034 L0.479792674,24.2577008 L16.4930608,24.2577008 C16.7176978,27.4142863 17.3445802,30.2803366 18.3777104,32.7966502 C18.4767708,33.0389287 18.5273017,33.297127 18.5273017,33.5627876 C18.5273017,34.6438373 17.6777834,35.5229054 16.6336465,35.5229054 L6.1647605,35.5229054 Z M0.479792674,12.2193939 L16.4630425,12.2193939 C16.4220174,12.9347871 16.3940003,13.6591352 16.3940003,14.4028855 L16.3940003,21.5971145 C16.3940003,22.3408648 16.4220174,23.0652129 16.4630425,23.7806061 L0.479792674,23.7806061 L0.479792674,12.2193939 Z M6.1647605,0.477094648 L16.6336465,0.477094648 C17.6777834,0.477094648 18.5273017,1.35666017 18.5273017,2.43721239 C18.5273017,2.70337051 18.4767708,2.96107127 18.3777104,3.20285229 C17.3445802,5.71966336 16.7176978,8.58571369 16.4930608,11.7422992 L0.479792674,11.7422992 L0.479792674,6.13009411 C0.479792674,3.01281041 3.02984821,0.477094648 6.1647605,0.477094648 Z M43.8352395,0 L6.1647605,0 C2.76568707,0 0,2.74963725 0,6.13009411 L0,29.8704034 C0,33.2503628 2.76568707,36 6.1647605,36 L43.8352395,36 C47.2343129,36 50,33.2503628 50,29.8704034 L50,6.13009411 C50,2.74963725 47.2343129,0 43.8352395,0 L43.8352395,0 Z" id="Fill-290" stroke="#000000" stroke-width="0.25" fill="#0A0B09"></path>
            </g>
        </g>
    </g>
</svg>