<?xml version="1.0" encoding="UTF-8"?>
<svg width="40px" height="40px" viewBox="0 0 40 40" version="1.1" xmlns="http://www.w3.org/2000/svg" xmlns:xlink="http://www.w3.org/1999/xlink">
    <title>icon-apple</title>
    <g id="icon-apple" stroke="none" stroke-width="1" fill="none" fill-rule="evenodd">
        <g id="Group" transform="translate(4.000000, 0.000000)" fill="#000000" fill-rule="nonzero">
            <path d="M31.5271527,13.6373637 C31.2951295,13.8173817 27.1987199,16.1256126 27.1987199,21.2581258 C27.1987199,27.1947195 32.4112411,29.2949295 32.5672567,29.3469347 C32.5432543,29.4749475 31.7391739,32.2232223 29.8189819,35.0235024 C28.1068107,37.4877488 26.3186319,39.9479948 23.5983598,39.9479948 C20.8780878,39.9479948 20.1780178,38.3678368 17.0377038,38.3678368 C13.9773977,38.3678368 12.8892889,40 10.4010401,40 C7.91279128,40 6.17661766,37.719772 4.18041804,34.9194919 C1.86818682,31.6311631 0,26.5226523 0,21.6741674 C0,13.8973897 5.05650565,9.7729773 10.0330033,9.7729773 C12.6772677,9.7729773 14.8814881,11.5091509 16.5416542,11.5091509 C18.1218122,11.5091509 20.5860586,9.6689669 23.5943594,9.6689669 C24.7344734,9.6689669 28.8308831,9.7729773 31.5271527,13.6373637 Z M22.1662166,6.37663766 C23.410341,4.90049005 24.290429,2.85228523 24.290429,0.804080408 C24.290429,0.520052005 24.2664266,0.232023202 24.2144214,0 C22.190219,0.0760076008 19.7819782,1.34813481 18.329833,3.03230323 C17.189719,4.32843284 16.1256126,6.37663766 16.1256126,8.45284528 C16.1256126,8.76487649 16.1776178,9.07690769 16.2016202,9.17691769 C16.329633,9.20092009 16.5376538,9.22892289 16.7456746,9.22892289 C18.5618562,9.22892289 20.8460846,8.01280128 22.1662166,6.37663766 Z" id="Shape"></path>
        </g>
    </g>
</svg>