<?xml version="1.0" encoding="UTF-8"?>
<svg width="24px" height="24px" viewBox="0 0 24 24" version="1.1" xmlns="http://www.w3.org/2000/svg">
        <path d="M12,0 C15.308,0 18,2.692 18,6 L18,9 L19.75,9 C20.991,9 22,10.009 22,11.25 L22,21.75 C22,22.991 20.991,24 19.75,24 L4.25,24 C3.009,24 2,22.991 2,21.75 L2,11.25 C2,10.009 3.009,9 4.25,9 L6,9 L6,6 C6,2.692 8.692,0 12,0 Z M19.65,10.5 L4.35,10.5 C3.8808,10.5 3.5,10.836 3.5,11.25 L3.5,21.75 C3.5,22.164 3.8808,22.5 4.35,22.5 L19.65,22.5 C20.1192,22.5 20.5,22.164 20.5,21.75 L20.5,11.25 C20.5,10.836 20.1192,10.5 19.65,10.5 Z M12,15 C12.304,15.001 12.586,15.118 12.798,15.331 C13.01,15.544 13.126,15.826 13.1250064,16.127 C13.1250064,16.746 12.62,17.25 12,17.25 C11.38,17.25 10.875,16.745 10.875,16.125 C10.875,15.505 11.38,15 12,15 Z M12,1.5 C9.519,1.5 7.5,3.519 7.5,6 L7.5,9 L16.5,9 L16.5,6 C16.5,3.519 14.481,1.5 12,1.5 Z"></path>
</svg>