<?xml version="1.0" encoding="UTF-8"?>
<svg width="24px" height="24px" viewBox="0 0 24 24" version="1.1" xmlns="http://www.w3.org/2000/svg" xmlns:xlink="http://www.w3.org/1999/xlink">
    <title>icon-track-usage</title>
    <g id="icon-track-usage" stroke="none" stroke-width="1" fill="none" fill-rule="evenodd">
        <path d="M18.888,9.064 C19.302,9.064 19.638,9.4 19.638,9.814 C19.638,12.17 18.801,14.424 17.273,16.201 L23.78,22.721 C23.922,22.862 24,23.051 24,23.251 C24,23.451 23.922,23.639 23.78,23.781 C23.638,23.922 23.45,24 23.25,24 C23.049,24 22.861,23.922 22.719,23.78 L16.213,17.261 C14.436,18.788 12.182,19.626 9.826,19.626 C7.639,19.626 5.488,18.883 3.768,17.533 C3.611,17.41 3.51,17.232 3.486,17.033 C3.462,16.834 3.517,16.638 3.641,16.48 C3.784,16.297 4,16.193 4.231,16.193 C4.398,16.193 4.563,16.25 4.694,16.353 C6.151,17.496 7.973,18.126 9.825,18.126 C12.046,18.126 14.133,17.261 15.703,15.692 C17.273,14.122 18.138,12.034 18.138,9.814 C18.138,9.4 18.474,9.064 18.888,9.064 Z M23.251,0.752 C23.338,0.752 23.424,0.768 23.508,0.798 C23.511,0.799 23.514,0.8 23.517,0.801 C23.619,0.843 23.697,0.892 23.763,0.954 C23.769,0.959 23.775,0.965 23.781,0.97 C23.852,1.04 23.906,1.122 23.944,1.214 C23.947,1.221 23.95,1.229 23.953,1.237 C23.981,1.315 23.997,1.397 24,1.48 L24,6.321 L24,6.321 C24,6.735 23.664,7.071 23.25,7.071 C22.836,7.071 22.5,6.735 22.5,6.321 L22.5,3.321 C22.5,3.321 20.8433609,4.99105917 19.0592881,6.78968275 L18.3872741,7.46718232 C16.5205684,9.34913942 14.723,11.1615192 14.723,11.162 C14.403,11.481 13.977,11.657 13.525,11.657 C13.071,11.657 12.645,11.48 12.325,11.16 L9.879,8.713 C9.829,8.664 9.77,8.657 9.74,8.657 C9.709,8.657 9.65,8.664 9.6,8.714 L1.28,17.031 C1.139,17.172 0.95,17.25 0.75,17.25 C0.55,17.25 0.361,17.172 0.22,17.03 C0.078,16.889 0,16.7 0,16.5 C0,16.3 0.078,16.111 0.22,15.97 L8.54,7.653 C8.861,7.334 9.287,7.158 9.74,7.158 C10.193,7.158 10.619,7.334 10.939,7.653 L13.386,10.101 C13.423,10.138 13.473,10.159 13.525,10.159 C13.577,10.159 13.627,10.139 13.664,10.102 L21.451,2.252 L18.444,2.252 C18.03,2.252 17.694,1.916 17.694,1.502 C17.694,1.088 18.03,0.752 18.444,0.752 L23.251,0.752 Z M9.825,-1.13686838e-13 C12.402,-1.13686838e-13 14.835,0.99 16.678,2.789 C16.821,2.929 16.902,3.116 16.904039,3.317 C16.906,3.517 16.831,3.707 16.691,3.85 C16.549,3.996 16.358,4.076 16.154,4.076 C15.957,4.076 15.771,4 15.63,3.863 C14.069,2.339 12.008,1.5 9.826,1.5 C7.604,1.5 5.517,2.365 3.948,3.935 C2.378,5.505 1.514,7.592 1.514,9.813 C1.514,10.069 1.525,10.321 1.547,10.564 C1.584,10.976 1.279,11.341 0.867,11.378 C0.843,11.38 0.821,11.381 0.8,11.381 C0.409,11.381 0.089,11.088 0.053,10.698 C0.027,10.411 0.014,10.113 0.014,9.813 C0.014,7.192 1.034,4.728 2.887,2.875 C4.74,1.021 7.204,-1.13686838e-13 9.825,-1.13686838e-13 Z" id="Combined-Shape" fill="#000000" fill-rule="nonzero"></path>
    </g>
</svg>