<svg width="56" height="56" viewBox="0 0 56 56" fill="none" xmlns="http://www.w3.org/2000/svg">
<path d="M25.667 29.1667H5.83366C4.59598 29.1667 3.409 28.6751 2.53383 27.7999C1.65866 26.9247 1.16699 25.7378 1.16699 24.5001V5.83341C1.16699 4.59574 1.65866 3.40875 2.53383 2.53358C3.409 1.65841 4.59598 1.16675 5.83366 1.16675H36.167C37.4047 1.16675 38.5917 1.65841 39.4668 2.53358C40.342 3.40875 40.8337 4.59574 40.8337 5.83341V21.0001" stroke="#5398FC" stroke-width="2" stroke-linecap="round" stroke-linejoin="round"/>
<path d="M1.17578 8.16675H40.8425" stroke="#5398FC" stroke-width="2" stroke-linecap="round" stroke-linejoin="round"/>
<path d="M19.8424 12.8333H8.17578" stroke="#5398FC" stroke-width="2" stroke-linecap="round" stroke-linejoin="round"/>
<path d="M36.1764 12.8333H31.5098" stroke="#5398FC" stroke-width="2" stroke-linecap="round" stroke-linejoin="round"/>
<path d="M15.1758 17.5H8.17578" stroke="#5398FC" stroke-width="2" stroke-linecap="round" stroke-linejoin="round"/>
<path d="M43.1764 54.8333C49.6198 54.8333 54.8431 49.61 54.8431 43.1667C54.8431 36.7233 49.6198 31.5 43.1764 31.5C36.7331 31.5 31.5098 36.7233 31.5098 43.1667C31.5098 49.61 36.7331 54.8333 43.1764 54.8333Z" stroke="#5398FC" stroke-width="2" stroke-linecap="round" stroke-linejoin="round"/>
<path d="M38.5 44.3334L41.027 46.8604C41.1468 46.98 41.2912 47.0722 41.4502 47.1304C41.6092 47.1886 41.779 47.2115 41.9477 47.1975C42.1164 47.1835 42.2801 47.133 42.4273 47.0494C42.5746 46.9658 42.7019 46.8511 42.8003 46.7134L47.8333 39.6667" stroke="#5398FC" stroke-width="2" stroke-linecap="round" stroke-linejoin="round"/>
</svg>
