<svg width="36" height="36" viewBox="0 0 36 36" fill="none" xmlns="http://www.w3.org/2000/svg">
<g clip-path="url(#clip0_103_746)">
<path d="M24.8128 13.5736L27.5128 10.8181C28.1417 10.1034 28.5116 9.19771 28.5628 8.24707V2.24707C28.5628 1.84925 28.4047 1.46771 28.1234 1.18641C27.8421 0.905106 27.4606 0.74707 27.0628 0.74707L20.6758 0.75757C19.7264 0.810301 18.8233 1.18487 18.1153 1.81957L1.87326 18.0616C1.59206 18.3429 1.43408 18.7243 1.43408 19.1221C1.43408 19.5198 1.59206 19.9013 1.87326 20.1826L9.12726 27.4366C9.26604 27.5754 9.43094 27.6852 9.61245 27.7599C9.79395 27.8345 9.98845 27.8725 10.1847 27.8715C10.381 27.8705 10.5751 27.8307 10.7558 27.7542C10.9366 27.6777 11.1004 27.5662 11.2378 27.4261L12.8128 25.8181" stroke="#386DFB" stroke-width="1.5" stroke-linecap="round" stroke-linejoin="round"/>
<path d="M23.313 8.24707C24.5556 8.24707 25.563 7.23971 25.563 5.99707C25.563 4.75443 24.5556 3.74707 23.313 3.74707C22.0703 3.74707 21.063 4.75443 21.063 5.99707C21.063 7.23971 22.0703 8.24707 23.313 8.24707Z" stroke="#386DFB" stroke-width="1.5" stroke-linecap="round" stroke-linejoin="round"/>
<path d="M27.5648 21.8572H24.5153C24.0473 21.8566 23.5937 22.0192 23.2326 22.3169C22.8715 22.6146 22.6253 23.0288 22.5366 23.4883C22.4478 23.9479 22.5219 24.4239 22.7461 24.8347C22.9704 25.2455 23.3308 25.5653 23.7653 25.7392L26.8598 26.9767C27.295 27.1498 27.6561 27.4694 27.8809 27.8802C28.1057 28.2911 28.1801 28.7676 28.0912 29.2274C28.0023 29.6872 27.7558 30.1016 27.3941 30.3992C27.0324 30.6967 26.5782 30.8587 26.1098 30.8572H23.0648" stroke="#386DFB" stroke-width="1.5" stroke-linecap="round" stroke-linejoin="round"/>
<path d="M25.563 32.2471V30.7471" stroke="#386DFB" stroke-width="1.5" stroke-linecap="round" stroke-linejoin="round"/>
<path d="M25.563 21.7471V20.2471" stroke="#386DFB" stroke-width="1.5" stroke-linecap="round" stroke-linejoin="round"/>
<path d="M25.563 35.2471C30.5336 35.2471 34.563 31.2176 34.563 26.2471C34.563 21.2765 30.5336 17.2471 25.563 17.2471C20.5924 17.2471 16.563 21.2765 16.563 26.2471C16.563 31.2176 20.5924 35.2471 25.563 35.2471Z" stroke="#386DFB" stroke-width="1.5" stroke-linecap="round" stroke-linejoin="round"/>
</g>
<defs>
<clipPath id="clip0_103_746">
<rect width="36" height="36" fill="white"/>
</clipPath>
</defs>
</svg>
