<?xml version="1.0" encoding="UTF-8"?>
<svg width="24px" height="24px" viewBox="0 0 24 24" version="1.1" xmlns="http://www.w3.org/2000/svg" xmlns:xlink="http://www.w3.org/1999/xlink">
    <title>icon-learn</title>
    <g id="icon-learn" stroke="none" stroke-width="1" fill="none" fill-rule="evenodd">
        <path d="M18,0 C19.241,0 20.25,1.009 20.25,2.25 L20.25,4.629 C21.135,4.943 21.75,5.791 21.75,6.75 L21.75,22.275 C21.729,23.232 20.945,24.003 20.001,24.003 L4.736,24.003 C3.255,24.003 2.028,22.795 2,21.311 L2,2.982 L2,2.982 C2.012,1.337 3.355,0 5,0 L18,0 Z M3.499,5.597 L3.499,21.296 C3.512,21.958 4.066,22.503 4.735,22.503 L19.984,22.503 C20.132,22.503 20.246,22.393 20.249,22.259 L20.249,6.749 C20.249,6.335 19.913,5.999 19.499,5.999 L4.999,5.999 C4.464,5.999 3.95,5.859 3.499,5.597 Z M6.499,11.248 C6.699,11.248 6.888,11.326 7.029,11.468 L9.279,13.718 C9.571,14.01 9.571,14.486 9.279,14.779 L7.029,17.029 C6.888,17.171 6.7,17.249 6.499,17.249 C6.299,17.249 6.11,17.171 5.969,17.029 C5.677,16.737 5.677,16.261 5.969,15.968 L7.689,14.248 L5.969,12.528 C5.827,12.386 5.749,12.198 5.749,11.998 C5.749,11.798 5.827,11.609 5.969,11.468 C6.11,11.326 6.299,11.248 6.499,11.248 Z M16.499,13.499 C16.913,13.499 17.249,13.835 17.249,14.249 C17.249,14.663 16.913,14.999 16.499,14.999 L12.586,14.999 C12.172,14.999 11.836,14.663 11.836,14.249 C11.836,13.835 12.172,13.499 12.586,13.499 L16.499,13.499 Z M17.999,1.499 L4.999,1.499 C4.173,1.499 3.5,2.171 3.499,2.997 C3.499,3.825 4.172,4.499 4.999,4.499 L18.749,4.499 L18.749,2.249 C18.749,1.835 18.413,1.499 17.999,1.499 Z" id="Combined-Shape" fill="#000000" fill-rule="nonzero"></path>
    </g>
</svg>