<?xml version="1.0" encoding="UTF-8"?>
<svg width="24px" height="24px" viewBox="0 0 24 24" version="1.1" xmlns="http://www.w3.org/2000/svg" xmlns:xlink="http://www.w3.org/1999/xlink">
    <title>icon-billing</title>
    <g id="icon-billing" stroke="none" stroke-width="1" fill="none" fill-rule="evenodd">
        <path d="M21.75,3 C22.991,3 24,4.009 24,5.25 L24,19.75 C24,20.991 22.991,22 21.75,22 L2.25,22 C1.009,22 0,20.991 0,19.75 L0,5.25 C0,4.009 1.009,3 2.25,3 L21.75,3 Z M22.5,9 L1.5,9 L1.5,19.75 C1.5,20.164 1.836,20.5 2.25,20.5 L21.75,20.5 C22.164,20.5 22.5,20.164 22.5,19.75 L22.5,9 Z M10.5,15 C10.914,15 11.25,15.336 11.25,15.75 C11.25,16.164 10.914,16.5 10.5,16.5 L5.25,16.5 C4.836,16.5 4.5,16.164 4.5,15.75 C4.5,15.336 4.836,15 5.25,15 L10.5,15 Z M13.5,12 C13.914,12 14.25,12.336 14.25,12.75 C14.25,13.164 13.914,13.5 13.5,13.5 L5.25,13.5 C4.836,13.5 4.5,13.164 4.5,12.75 C4.5,12.336 4.836,12 5.25,12 L13.5,12 Z M21.75,4.5 L2.25,4.5 C1.836,4.5 1.5,4.836 1.5,5.25 L1.5,7.5 L22.5,7.5 L22.5,5.25 C22.5,4.836 22.164,4.5 21.75,4.5 Z" id="Combined-Shape" fill="#000000" fill-rule="nonzero"></path>
    </g>
</svg>