<?xml version="1.0" encoding="UTF-8"?>
<svg width="40px" height="40px" viewBox="0 0 40 40" version="1.1" xmlns="http://www.w3.org/2000/svg" xmlns:xlink="http://www.w3.org/1999/xlink">
    <title>icon-linux</title>
    <g id="icon-linux" stroke="none" stroke-width="1" fill="none" fill-rule="evenodd">
        <g id="Group" transform="translate(3.000000, 0.000000)" fill="#000000" fill-rule="nonzero">
            <path d="M16.3904248,9.77386352 C16.3904248,9.9063007 16.2579876,9.9063007 16.2579876,9.9063007 L16.1255504,9.9063007 C15.9931133,9.9063007 15.9931133,9.77386352 15.8606761,9.64142635 C15.8606761,9.64142635 15.7282389,9.50898917 15.7282389,9.376552 C15.7282389,9.24411482 15.7282389,9.24411482 15.8606761,9.24411482 L16.1255504,9.376552 C16.2579876,9.50898917 16.3904248,9.64142635 16.3904248,9.77386352 M14.0065556,8.44949177 C14.0065556,7.7873059 13.7416813,7.38999437 13.3443698,7.38999437 C13.3443698,7.38999437 13.3443698,7.52243155 13.2119326,7.52243155 L13.2119326,7.7873059 L13.6092441,7.7873059 C13.6092441,8.05218025 13.7416813,8.18461742 13.7416813,8.44949177 L14.0065556,8.44949177 M18.6418568,7.7873059 C18.9067311,7.7873059 19.0391683,8.05218025 19.1716055,8.44949177 L19.4364798,8.44949177 C19.3040426,8.3170546 19.3040426,8.18461742 19.3040426,8.05218025 C19.3040426,7.91974307 19.3040426,7.7873059 19.1716055,7.65486872 C19.0391683,7.52243155 18.9067311,7.38999437 18.7742939,7.38999437 C18.7742939,7.38999437 18.6418568,7.52243155 18.5094196,7.52243155 C18.5094196,7.65486872 18.6418568,7.65486872 18.6418568,7.7873059 M14.6687415,9.9063007 C14.5363043,9.9063007 14.5363043,9.9063007 14.5363043,9.77386352 C14.5363043,9.64142635 14.5363043,9.50898917 14.6687415,9.376552 C14.9336159,9.376552 15.066053,9.24411482 15.066053,9.24411482 C15.1984902,9.24411482 15.1984902,9.376552 15.1984902,9.376552 C15.1984902,9.50898917 15.066053,9.64142635 14.8011787,9.9063007 L14.6687415,9.9063007 M13.2119326,9.77386352 C12.6821839,9.50898917 12.5497467,9.11167765 12.5497467,8.44949177 C12.5497467,8.05218025 12.5497467,7.7873059 12.8146211,7.52243155 C12.9470582,7.2575572 13.2119326,7.12512002 13.4768069,7.12512002 C13.7416813,7.12512002 13.8741185,7.2575572 14.1389928,7.52243155 C14.27143,7.91974307 14.4038672,8.3170546 14.4038672,8.71436612 L14.4038672,8.8468033 L14.4038672,8.97924047 L14.5363043,8.97924047 L14.5363043,8.8468033 C14.6687415,8.8468033 14.6687415,8.58192895 14.6687415,8.05218025 C14.6687415,7.65486872 14.6687415,7.2575572 14.4038672,6.86024567 C14.1389928,6.46293415 13.8741185,6.1980598 13.3443698,6.1980598 C12.9470582,6.1980598 12.5497467,6.46293415 12.4173095,6.86024567 C12.1524352,7.38999437 12.0994603,7.7873059 12.0994603,8.44949177 C12.0994603,8.97924047 12.2848724,9.50898917 12.8146211,10.0387379 C12.9470582,9.9063007 13.0794954,9.9063007 13.2119326,9.77386352 M29.7665795,28.4475052 C29.8990167,28.4475052 29.8990167,28.3945303 29.8990167,28.2753369 C29.8990167,27.9839751 29.7665795,27.6396384 29.369268,27.2555706 C28.9719564,26.8582591 28.3097706,26.6066285 27.5151475,26.5006787 C27.3827103,26.487435 27.2502732,26.487435 27.2502732,26.487435 C27.117836,26.4609476 27.117836,26.4609476 26.9853988,26.4609476 C26.8529616,26.4477039 26.5880873,26.4212164 26.4556501,26.394729 C26.8529616,25.1630633 26.9853988,24.0770784 26.9853988,23.1235308 C26.9853988,21.799159 26.7205245,20.8720988 26.1907758,20.0774757 C25.6610271,19.2828527 25.1312783,18.8855412 24.4690925,18.753104 C24.3366553,18.8855412 24.3366553,18.8855412 24.3366553,19.0179783 C24.9988412,19.2828527 25.6610271,19.8126014 26.0583386,20.6072244 C26.4556501,21.5342847 26.5880873,22.3289077 26.5880873,23.255968 C26.5880873,23.9976161 26.4556501,25.0968447 25.9259014,26.5006787 C25.3961527,26.7125782 24.866404,27.2025958 24.4690925,27.9707314 C24.4690925,28.0899248 24.4690925,28.1561434 24.6015296,28.1561434 C24.6015296,28.1561434 24.7339668,28.03695 24.866404,27.8118068 C25.1312783,27.5866636 25.2637155,27.3615204 25.5285899,27.1363772 C25.9259014,26.911234 26.1907758,26.7920405 26.5880873,26.7920405 C27.2502732,26.7920405 27.912459,26.8847465 28.3097706,27.0701586 C28.8395193,27.2423269 29.1043936,27.427739 29.2368308,27.6396384 C29.369268,27.8382942 29.5017051,28.0237063 29.6341423,28.1958746 C29.6341423,28.3680429 29.7665795,28.4475052 29.7665795,28.4475052 M17.5823594,9.24411482 C17.4499222,9.11167765 17.4499222,8.8468033 17.4499222,8.58192895 C17.4499222,8.05218025 17.4499222,7.7873059 17.7147965,7.38999437 C17.9796709,7.12512002 18.2445452,6.99268285 18.5094196,6.99268285 C18.9067311,6.99268285 19.1716055,7.2575572 19.4364798,7.52243155 C19.568917,7.91974307 19.7013542,8.18461742 19.7013542,8.58192895 C19.7013542,9.24411482 19.4364798,9.64142635 18.9067311,9.77386352 C18.9067311,9.77386352 19.0391683,9.9063007 19.1716055,9.9063007 C19.4364798,9.9063007 19.568917,10.0387379 19.8337913,10.171175 C19.9662285,9.376552 20.0986657,8.8468033 20.0986657,8.18461742 C20.0986657,7.38999437 19.9662285,6.86024567 19.7013542,6.46293415 C19.3040426,6.06562262 18.9067311,5.93318545 18.3769824,5.93318545 C17.9796709,5.93318545 17.5823594,6.06562262 17.1850478,6.33049697 C16.9201735,6.7278085 16.7877363,6.99268285 16.7877363,7.38999437 C16.7877363,8.05218025 16.9201735,8.58192895 17.1850478,9.11167765 C17.317485,9.11167765 17.4499222,9.24411482 17.5823594,9.24411482 M19.1716055,11.3631096 C17.4499222,12.5550442 16.1255504,13.0847929 15.066053,13.0847929 C14.1389928,13.0847929 13.2119326,12.6874814 12.4173095,12.0252955 C12.5497467,12.2901699 12.6821839,12.5550442 12.8146211,12.6874814 L13.6092441,13.4821044 C14.1389928,14.0118531 14.8011787,14.2767275 15.4633646,14.2767275 C16.3904248,14.2767275 17.4499222,13.7469788 18.7742939,12.8199186 L19.9662285,12.0252955 C20.2311029,11.7604212 20.4959772,11.4955468 20.4959772,11.0982353 C20.4959772,10.9657981 20.4959772,10.8333609 20.36354,10.8333609 C20.2311029,10.5684866 19.568917,10.171175 18.2445452,9.77386352 C17.0526107,9.24411482 16.1255504,8.97924047 15.5958017,8.97924047 C15.1984902,8.97924047 14.5363043,9.24411482 13.6092441,9.77386352 C12.8146211,10.3036122 12.2848724,10.8333609 12.2848724,11.3631096 C12.2848724,11.3631096 12.4173095,11.4955468 12.5497467,11.7604212 C13.3443698,12.422607 14.1389928,12.8199186 14.9336159,12.8199186 C15.9931133,12.8199186 17.317485,12.2901699 19.0391683,10.9657981 L19.0391683,11.2306724 C19.1716055,11.2306724 19.1716055,11.3631096 19.1716055,11.3631096 M22.2176605,38.115419 C22.7474092,39.1113466 23.6744694,39.6119591 24.7339668,39.6119591 C24.9988412,39.6119591 25.2637155,39.5722279 25.5285899,39.4927656 C25.7934642,39.4397907 26.0583386,39.3470847 26.1907758,39.241135 C26.3232129,39.148429 26.4556501,39.0557229 26.5880873,38.9497732 C26.8529616,38.8570672 26.8529616,38.7908486 26.9853988,38.72463 L29.2368308,36.7778035 C29.7665795,36.3553289 30.2963282,35.9858292 30.9585141,35.6653313 C31.4882628,35.347482 32.0180115,35.1355826 32.2828858,35.0163891 C32.6801973,34.9104394 32.9450717,34.7515148 33.209946,34.5396153 C33.3423832,34.3409595 33.4748204,34.0893289 33.4748204,33.7714797 C33.4748204,33.3874118 33.209946,33.0960501 32.9450717,32.8841506 C32.6801973,32.6722511 32.415323,32.5265702 32.1504486,32.4338642 C31.8855743,32.3411582 31.6206999,32.1292587 31.2233884,31.7716783 C30.9585141,31.4273417 30.6936397,30.9505678 30.5612025,30.3281131 L30.4287654,29.5599775 C30.2963282,29.2023971 30.2963282,28.9375228 30.163891,28.7918419 C30.163891,28.7521107 30.163891,28.738867 30.0314538,28.738867 C29.8990167,28.738867 29.6341423,28.8580605 29.5017051,29.0832037 C29.2368308,29.3083469 28.9719564,29.5599775 28.7070821,29.8248518 C28.5746449,30.0897262 28.1773334,30.3281131 27.912459,30.5532563 C27.5151475,30.7783995 27.117836,30.897593 26.8529616,30.897593 C25.7934642,30.897593 25.2637155,30.6062312 24.866404,30.0367513 C24.6015296,29.6129524 24.4690925,29.1229348 24.3366553,28.5666987 C24.0717809,28.3415555 23.9393438,28.222362 23.6744694,28.222362 C23.0122835,28.222362 22.7474092,28.9110353 22.7474092,30.3016257 L22.7474092,30.7386683 L22.7474092,32.2749396 L22.7474092,33.4536304 L22.7474092,34.0231103 L22.7474092,34.4204218 C22.7474092,34.5396153 22.614972,34.8044896 22.614972,35.2150449 C22.4825348,35.6256001 22.4825348,36.091779 22.4825348,36.6188789 L22.2176605,38.0889316 L22.2176605,38.1114459 M3.01427011,37.4108532 C4.24593583,37.5909678 5.66301361,37.97636 7.26550343,38.564381 C8.86799325,39.1471046 9.84802834,39.4517101 10.2056087,39.4517101 C11.1326689,39.4517101 11.9008046,39.0411549 12.536503,38.2478562 C12.6689402,37.9909281 12.6689402,37.6889713 12.6689402,37.3419859 C12.6689402,36.0904546 11.9140483,34.5078303 10.4042645,32.5874913 L9.50369169,31.382313 C9.31827964,31.1306824 9.09313644,30.7466146 8.80177466,30.2301096 C8.52365659,29.7136046 8.27202596,29.3162931 8.0733702,29.038175 C7.90120187,28.7335695 7.6230838,28.428964 7.26550343,28.1243585 C6.92116677,27.819753 6.52385525,27.6210972 6.08681257,27.5151475 C5.53057643,27.6210972 5.14650862,27.8065093 4.96109658,28.0581399 C4.77568453,28.3097706 4.66973479,28.5878886 4.64324736,28.8792504 C4.60351621,29.1573685 4.5240539,29.3427805 4.39161673,29.4354865 C4.25917955,29.5149488 4.03403635,29.5811674 3.72943085,29.647386 C3.66321226,29.647386 3.54401881,29.647386 3.37185048,29.6606297 L3.01427011,29.6606297 C2.31235308,29.6606297 1.83557925,29.740092 1.58394861,29.8725292 C1.25285568,30.256597 1.08068735,30.6936397 1.08068735,31.1571698 C1.08068735,31.3690693 1.13366222,31.7266497 1.23961196,32.2299109 C1.3455617,32.7199285 1.39853657,33.11724 1.39853657,33.3953581 C1.39853657,33.9383505 1.23961196,34.4813429 0.908519021,35.0243353 C0.577426084,35.5938152 0.405257756,36.0176141 0.405257756,36.3195709 C0.537694931,36.8334271 1.41178029,37.1949806 3.01427011,37.4068801 M7.42442804,25.3683409 C7.42442804,24.4545244 7.66281495,23.4480019 8.1528325,22.2560673 C8.62960633,21.0641327 9.10638016,20.2695097 9.56991027,19.739761 C9.54342284,19.6073238 9.47720425,19.6073238 9.37125451,19.6073238 L9.23881734,19.4748866 C8.85474953,19.8721981 8.39121942,20.7992584 7.83498328,22.1236301 C7.27874714,23.3155647 6.98738536,24.4147932 6.98738536,25.22266 C6.98738536,25.8186273 7.13306625,26.3351323 7.3979406,26.7854187 C7.68930239,27.2224613 8.39121942,27.8581598 9.50369169,28.6660266 L10.9075257,29.5798431 C12.4040658,30.8777274 13.1986889,31.7783002 13.1986889,32.3080489 C13.1986889,32.5861669 13.0662517,32.864285 12.6689402,33.1688905 C12.4040658,33.4867397 12.0464854,33.6456643 11.7418799,33.6456643 C11.7153925,33.6456643 11.7021488,33.6721518 11.7021488,33.7383704 C11.7021488,33.7516141 11.834586,34.0164884 12.112704,34.5329934 C12.6689402,35.2878853 13.8608747,35.6587094 15.4501208,35.6587094 C18.3637387,35.6587094 20.6151707,34.4667748 22.336854,32.0829057 C22.336854,31.4207198 22.336854,31.0101646 22.2044168,30.8379962 L22.2044168,30.3479787 C22.2044168,29.487137 22.336854,28.8381949 22.6017283,28.4143959 C22.8666027,27.990597 23.131477,27.7919412 23.5287885,27.7919412 C23.7936629,27.7919412 24.0585372,27.8846472 24.3234116,28.083303 C24.4558488,27.0635367 24.4558488,26.1762077 24.4558488,25.3815846 C24.4558488,24.1764063 24.4558488,23.1831275 24.1909744,22.2560673 C24.0585372,21.4614442 23.7936629,20.7992584 23.5287885,20.2695097 C23.2639142,19.8721981 22.9990398,19.4748866 22.7341655,19.0775751 C22.4692911,18.6802635 22.336854,18.282952 22.0719796,17.8856405 C21.9395424,17.3558918 21.8071053,16.9585803 21.8071053,16.2963944 C21.4097937,15.6342085 21.1449194,14.9720226 20.7476079,14.3098368 C20.4827335,13.6476509 20.2178592,12.985465 19.9529848,12.4557163 L18.7610502,13.3827765 C17.4366785,14.3098368 16.3771811,14.7071483 15.4501208,14.7071483 C14.6554978,14.7071483 13.9933119,14.5747111 13.5960004,14.0449624 L12.8013773,13.3827765 C12.8013773,13.7800881 12.6689402,14.3098368 12.4040658,14.8395855 L11.5697116,16.4288316 C11.1988875,17.3558918 11.0002318,17.8856405 10.9605006,18.282952 C10.9075257,18.5478264 10.8677946,18.8127007 10.8413072,18.8127007 L9.84802834,20.7992584 C8.77528722,22.785816 8.23229481,24.6266927 8.23229481,26.1497202 C8.23229481,26.4543257 8.25878224,26.7721749 8.31175711,27.0900242 C7.71578982,26.6794689 7.42442804,26.1099891 7.42442804,25.3683409 M16.9069298,37.8968977 C15.1852465,37.8968977 13.8608747,38.1299871 12.9338145,38.5921928 L12.9338145,38.5524617 C12.2716286,39.3470847 11.5299805,39.75764 10.4969705,39.75764 C9.84802834,39.75764 8.82826209,39.5060093 7.45091547,39.0027481 C6.06032513,38.5259742 4.8286594,38.1604476 3.75591829,37.919412 C3.64996855,37.8889514 3.41158163,37.8439228 3.02751382,37.7830017 C2.65668973,37.723405 2.31235308,37.6624839 2.00774757,37.6015628 C1.72962951,37.541966 1.41178029,37.4519088 1.06744363,37.3300665 C0.736350694,37.2254412 0.471476343,37.0890309 0.272820581,36.9234844 C0.0900572791,36.7566136 0,36.5685528 0,36.3579777 C0,36.1460782 0.0450286395,35.9196106 0.135085919,35.678575 C0.219845711,35.5328941 0.312551733,35.3872132 0.405257756,35.254776 C0.497963778,35.1090951 0.577426084,34.9766579 0.630400954,34.8442208 C0.709863259,34.7250273 0.762838129,34.6058339 0.815812999,34.4733967 C0.868787869,34.3542032 0.921762739,34.2350098 0.948250174,34.0893289 C0.974737609,33.9568917 1.00122504,33.8244545 1.00122504,33.6920173 C1.00122504,33.5595802 0.948250174,33.1622686 0.842300434,32.4603516 C0.736350694,31.7716783 0.683375824,31.3346356 0.683375824,31.1492236 C0.683375824,30.5665 0.815812999,30.1029699 1.10717478,29.771877 C1.39853657,29.440784 1.67665464,29.2686157 1.96801642,29.2686157 L3.49104394,29.2686157 C3.61023739,29.2686157 3.79564944,29.2023971 4.07376751,29.0434725 C4.16647353,28.831573 4.24593583,28.6594047 4.2989107,28.5004801 C4.36512929,28.3415555 4.39161673,28.222362 4.41810416,28.1693871 C4.4445916,28.0899248 4.47107903,28.0104625 4.49756647,27.9442439 C4.55054134,27.8515379 4.61675992,27.7455882 4.70946595,27.6396384 C4.60351621,27.5072013 4.55054134,27.3350329 4.55054134,27.1231335 C4.55054134,26.9774526 4.55054134,26.8450154 4.57702877,26.7655531 C4.57702877,26.2887793 4.80217197,25.6133497 5.2789458,24.7260206 L5.74247591,23.8916664 C6.12654372,23.1765056 6.41790551,22.6467569 6.62980499,22.1170082 C6.85494818,21.5872595 7.0933351,20.7926365 7.35820945,19.7331391 C7.57010893,18.8060789 8.0733702,17.8790186 8.86799325,16.9519584 L9.86127206,15.7600238 C10.5499454,14.9654008 11.0002318,14.3032149 11.2518624,13.7734662 C11.503493,13.2437175 11.6359302,12.5815316 11.6359302,12.0517829 C11.6359302,11.7869086 11.5697116,10.9922855 11.4240307,9.66791378 C11.2915936,8.34354203 11.225375,7.01917028 11.225375,5.82723571 C11.225375,4.90017548 11.3048373,4.2379896 11.4770056,3.57580373 C11.6491739,2.91361785 11.9537794,2.25143198 12.4040658,1.72168328 C12.8013773,1.19193458 13.331126,0.662185876 14.1257491,0.397311525 C14.9203721,0.132437175 15.8474324,0 16.9069298,0 C17.3042413,0 17.7015528,0 18.0988644,0.132437175 C18.4961759,0.132437175 19.0259246,0.26487435 19.6881105,0.5297487 C20.2178592,0.794623051 20.7476079,1.0594974 21.1449194,1.45680893 C21.6746681,1.85412045 22.0719796,2.51630633 22.4692911,3.1784922 C22.7341655,3.97311525 22.9990398,4.7677383 23.131477,5.82723571 C23.2639142,6.48942158 23.2639142,7.15160746 23.3963514,8.07866768 C23.3963514,8.87329073 23.5287885,9.40303943 23.5287885,9.80035096 C23.6612257,10.1976625 23.6612257,10.7274112 23.7936629,11.3895971 C23.9261001,11.9193458 24.0585372,12.4490945 24.3234116,12.846406 C24.5882859,13.3761547 24.8531603,13.9059034 25.2504718,14.4356521 C25.6477833,15.097838 26.177532,15.7600238 26.7072807,16.5546469 C27.8992153,17.8790186 28.8262755,19.3358276 29.3560242,20.7926365 C30.0182101,22.1170082 30.4155216,23.8386915 30.4155216,25.6795683 C30.4155216,26.5933848 30.2830845,27.4807138 30.0182101,28.3415555 C30.2830845,28.3415555 30.4155216,28.4475052 30.5479588,28.6329173 C30.680396,28.8183293 30.8128332,29.2156408 30.9452703,29.8380956 L31.0777075,30.8181306 C31.2101447,31.1094924 31.3425819,31.3876105 31.7398934,31.6259974 C32.0047677,31.8643843 32.2696421,32.0630401 32.6669536,32.2219647 C32.931828,32.3544019 33.3291395,32.5398139 33.5940138,32.7782008 C33.8588882,33.0430752 33.9913254,33.3211933 33.9913254,33.612555 C33.9913254,34.0628414 33.8588882,34.3939344 33.5940138,34.6323213 C33.3291395,34.8971956 33.0642651,35.0826077 32.6669536,35.2018011 C32.4020793,35.3342383 31.8723306,35.5991127 31.0777075,35.9725855 C30.4155216,36.3645995 29.7533358,36.840049 29.0911499,37.402907 L27.7667781,38.5299474 C27.2370294,39.0464523 26.7072807,39.4172764 26.3099692,39.6424196 C25.9126577,39.8808065 25.382909,40 24.8531603,40 L23.9261001,39.8940503 C22.8666027,39.6159322 22.2044168,39.0861835 21.8071053,38.2783167 C19.6881105,38.0213886 17.9664272,37.8942489 16.9069298,37.8942489" id="Shape"></path>
        </g>
    </g>
</svg>