<svg width="56" height="56" viewBox="0 0 56 56" fill="none" xmlns="http://www.w3.org/2000/svg">
<path d="M1.16675 16.3428H54.8334" stroke="white" stroke-width="2" stroke-linecap="round" stroke-linejoin="round"/>
<path d="M50.1667 4.67603H5.83341C3.25609 4.67603 1.16675 6.76536 1.16675 9.34269V46.676C1.16675 49.2534 3.25609 51.3427 5.83341 51.3427H50.1667C52.7441 51.3427 54.8334 49.2534 54.8334 46.676V9.34269C54.8334 6.76536 52.7441 4.67603 50.1667 4.67603Z" stroke="white" stroke-width="2" stroke-linecap="round" stroke-linejoin="round"/>
<path d="M1.16675 16.3428H54.8334" stroke="white" stroke-width="2" stroke-linecap="round" stroke-linejoin="round"/>
<path d="M9.33333 9.92603C9.44871 9.92603 9.56149 9.96024 9.65742 10.0243C9.75334 10.0884 9.82811 10.1795 9.87226 10.2861C9.91641 10.3927 9.92797 10.51 9.90546 10.6232C9.88295 10.7363 9.82739 10.8403 9.74581 10.9218C9.66423 11.0034 9.56029 11.059 9.44714 11.0815C9.33398 11.104 9.21669 11.0924 9.1101 11.0483C9.00351 11.0041 8.91241 10.9294 8.84831 10.8334C8.78421 10.7375 8.75 10.6247 8.75 10.5094C8.75 10.3546 8.81146 10.2063 8.92085 10.0969C9.03025 9.98748 9.17862 9.92603 9.33333 9.92603" stroke="white" stroke-width="2" stroke-linecap="round" stroke-linejoin="round"/>
<path d="M16.3333 9.92603C16.4487 9.92603 16.5615 9.96024 16.6574 10.0243C16.7533 10.0884 16.8281 10.1795 16.8723 10.2861C16.9164 10.3927 16.928 10.51 16.9055 10.6232C16.883 10.7363 16.8274 10.8403 16.7458 10.9218C16.6642 11.0034 16.5603 11.059 16.4471 11.0815C16.334 11.104 16.2167 11.0924 16.1101 11.0483C16.0035 11.0041 15.9124 10.9294 15.8483 10.8334C15.7842 10.7375 15.75 10.6247 15.75 10.5094C15.75 10.3546 15.8115 10.2063 15.9209 10.0969C16.0303 9.98748 16.1786 9.92603 16.3333 9.92603Z" stroke="white" stroke-width="2" stroke-linecap="round" stroke-linejoin="round"/>
<path d="M23.3333 9.92603C23.4487 9.92603 23.5615 9.96024 23.6574 10.0243C23.7533 10.0884 23.8281 10.1795 23.8723 10.2861C23.9164 10.3927 23.928 10.51 23.9055 10.6232C23.883 10.7363 23.8274 10.8403 23.7458 10.9218C23.6642 11.0034 23.5603 11.059 23.4471 11.0815C23.334 11.104 23.2167 11.0924 23.1101 11.0483C23.0035 11.0041 22.9124 10.9294 22.8483 10.8334C22.7842 10.7375 22.75 10.6247 22.75 10.5094C22.75 10.3546 22.8115 10.2063 22.9209 10.0969C23.0303 9.98748 23.1786 9.92603 23.3333 9.92603Z" stroke="white" stroke-width="2" stroke-linecap="round" stroke-linejoin="round"/>
<path d="M1.16675 35.0001H12.2081C12.4002 35 12.5893 34.9525 12.7587 34.8617C12.928 34.7709 13.0723 34.6397 13.1787 34.4798L16.2681 29.8668C16.3858 29.6894 16.5497 29.5476 16.7422 29.4567C16.9347 29.3659 17.1484 29.3294 17.3601 29.3513C17.5719 29.3731 17.7736 29.4525 17.9434 29.5808C18.1133 29.7091 18.2448 29.8814 18.3237 30.0791L21.3431 37.6274C21.422 37.8247 21.5533 37.9967 21.7228 38.1248C21.8923 38.2529 22.0936 38.3323 22.305 38.3544C22.5163 38.3765 22.7297 38.3405 22.922 38.2502C23.1143 38.1599 23.2784 38.0188 23.3964 37.8421L30.3054 27.4798C30.422 27.3052 30.5835 27.1654 30.773 27.075C30.9624 26.9846 31.1727 26.9469 31.3818 26.966C31.5908 26.9851 31.7908 27.0603 31.9607 27.1836C32.1306 27.3068 32.2641 27.4737 32.3471 27.6665L37.6507 40.0331C37.7333 40.2266 37.8666 40.3942 38.0366 40.5181C38.2066 40.642 38.4069 40.7176 38.6164 40.737C38.8259 40.7563 39.0367 40.7187 39.2265 40.6281C39.4163 40.5375 39.5781 40.3972 39.6947 40.2221L42.8191 35.5321C42.9242 35.37 43.0679 35.2365 43.2373 35.1437C43.4067 35.0508 43.5966 35.0015 43.7897 35.0001H54.8334" stroke="white" stroke-width="2" stroke-linecap="round" stroke-linejoin="round"/>
</svg>
