<svg width="26" height="26" viewBox="0 0 26 26" fill="none" xmlns="http://www.w3.org/2000/svg">
<path d="M23.6406 3.50101H2.64062C2.08834 3.50101 1.64062 3.94872 1.64062 4.50101V23.501C1.64062 24.0533 2.08834 24.501 2.64062 24.501H23.6406C24.1929 24.501 24.6406 24.0533 24.6406 23.501V4.50101C24.6406 3.94872 24.1929 3.50101 23.6406 3.50101Z" stroke="#386DFB" stroke-width="1.5" stroke-linecap="round" stroke-linejoin="round"/>
<path d="M6.64062 1.50101V6.50101" stroke="#386DFB" stroke-width="1.5" stroke-linecap="round" stroke-linejoin="round"/>
<path d="M19.6406 1.50101V6.50101" stroke="#386DFB" stroke-width="1.5" stroke-linecap="round" stroke-linejoin="round"/>
<path d="M1.64062 8.50101H24.6406" stroke="#386DFB" stroke-width="1.5" stroke-linecap="round" stroke-linejoin="round"/>
<path d="M18.1406 16.5C18.1406 17.4889 17.8474 18.4556 17.298 19.2779C16.7486 20.1001 15.9677 20.741 15.054 21.1194C14.1404 21.4978 13.1351 21.5969 12.1652 21.4039C11.1953 21.211 10.3044 20.7348 9.60509 20.0355C8.90583 19.3363 8.42963 18.4454 8.2367 17.4755C8.04377 16.5055 8.14279 15.5002 8.52123 14.5866C8.89967 13.673 9.54053 12.8921 10.3628 12.3427C11.185 11.7932 12.1517 11.5 13.1406 11.5" stroke="#386DFB" stroke-width="1.5" stroke-linecap="round" stroke-linejoin="round"/>
<path d="M11.1406 16L12.7606 17.215C12.8632 17.2919 12.9913 17.3264 13.1186 17.3115C13.2459 17.2966 13.3626 17.2334 13.4446 17.135L18.1406 11.5" stroke="#386DFB" stroke-width="1.5" stroke-linecap="round" stroke-linejoin="round"/>
</svg>
