<?xml version="1.0" encoding="UTF-8"?>
<svg width="24px" height="24px" viewBox="0 0 24 24" version="1.1" xmlns="http://www.w3.org/2000/svg" xmlns:xlink="http://www.w3.org/1999/xlink">
    <title>icon-home</title>
    <g id="icon-home" stroke="none" stroke-width="1" fill="none" fill-rule="evenodd">
        <path d="M20.249,13.127 C20.663,13.127 20.999,13.463 20.999,13.877 L20.999,23.127 C20.999,23.541 20.663,23.877 20.249,23.877 L14.249,23.877 C13.835,23.877 13.499,23.541 13.499,23.127 L13.499,16.127 C13.499,15.713 13.163,15.377 12.749,15.377 L11.249,15.377 C10.835,15.377 10.499,15.713 10.499,16.127 L10.499,23.127 C10.499,23.541 10.163,23.877 9.749,23.877 L3.749,23.877 C3.335,23.877 2.999,23.541 2.999,23.127 L2.999,13.877 C2.999,13.463 3.335,13.127 3.749,13.127 C4.163,13.127 4.499,13.463 4.499,13.877 L4.499,22.377 L8.999,22.377 L8.999,16.127 C8.999,14.886 10.008,13.877 11.249,13.877 L12.749,13.877 C13.99,13.877 14.999,14.886 14.999,16.127 L14.999,22.377 L19.499,22.377 L19.499,13.877 C19.499,13.463 19.835,13.127 20.249,13.127 Z M11.999,1 C12.6,1 13.165,1.234 13.59,1.658 L23.78,11.848 C24.072,12.14 24.072,12.616 23.78,12.909 C23.638,13.051 23.45,13.129 23.25,13.129 C23.05,13.129 22.861,13.051 22.72,12.909 L12.53,2.718 C12.388,2.577 12.2,2.499 11.999,2.499 C11.798,2.499 11.61,2.577 11.469,2.718 L1.279,12.907 C1.138,13.049 0.949,13.127 0.749,13.127 C0.549,13.127 0.36,13.049 0.219,12.907 C-0.073,12.615 -0.073,12.139 0.219,11.846 L10.408,1.658 C10.832,1.233 11.397,1 11.999,1 Z" id="Combined-Shape" fill="#000000" fill-rule="nonzero"></path>
    </g>
</svg>