<svg width="56" height="56" viewBox="0 0 56 56" fill="none" xmlns="http://www.w3.org/2000/svg">
<path d="M8.16602 11.6667H54.8327" stroke="#5398FC" stroke-width="2" stroke-linecap="round" stroke-linejoin="round"/>
<path d="M15.1673 6.41675C15.0519 6.41675 14.9392 6.45096 14.8432 6.51506C14.7473 6.57915 14.6725 6.67026 14.6284 6.77685C14.5842 6.88344 14.5727 7.00073 14.5952 7.11388C14.6177 7.22704 14.6733 7.33098 14.7548 7.41256C14.8364 7.49414 14.9404 7.5497 15.0535 7.57221C15.1667 7.59471 15.284 7.58316 15.3905 7.53901C15.4971 7.49486 15.5882 7.42009 15.6523 7.32416C15.7164 7.22824 15.7507 7.11545 15.7507 7.00008C15.7507 6.84537 15.6892 6.697 15.5798 6.5876C15.4704 6.47821 15.322 6.41675 15.1673 6.41675Z" stroke="#5398FC" stroke-width="2" stroke-linecap="round" stroke-linejoin="round"/>
<path d="M19.8333 6.41675C19.718 6.41675 19.6052 6.45096 19.5093 6.51506C19.4133 6.57915 19.3386 6.67026 19.2944 6.77685C19.2503 6.88344 19.2387 7.00073 19.2612 7.11388C19.2837 7.22704 19.3393 7.33098 19.4209 7.41256C19.5024 7.49414 19.6064 7.5497 19.7195 7.57221C19.8327 7.59471 19.95 7.58316 20.0566 7.53901C20.1632 7.49486 20.2543 7.42009 20.3184 7.32416C20.3825 7.22824 20.4167 7.11545 20.4167 7.00008C20.4167 6.84537 20.3552 6.697 20.2458 6.5876C20.1364 6.47821 19.988 6.41675 19.8333 6.41675Z" stroke="#5398FC" stroke-width="2" stroke-linecap="round" stroke-linejoin="round"/>
<path d="M24.4993 6.41675C24.384 6.41675 24.2712 6.45096 24.1753 6.51506C24.0793 6.57915 24.0046 6.67026 23.9604 6.77685C23.9163 6.88344 23.9047 7.00073 23.9272 7.11388C23.9497 7.22704 24.0053 7.33098 24.0869 7.41256C24.1684 7.49414 24.2724 7.5497 24.3855 7.57221C24.4987 7.59471 24.616 7.58316 24.7226 7.53901C24.8292 7.49486 24.9203 7.42009 24.9844 7.32416C25.0485 7.22824 25.0827 7.11545 25.0827 7.00008C25.0827 6.84537 25.0212 6.697 24.9118 6.5876C24.8024 6.47821 24.6541 6.41675 24.4993 6.41675Z" stroke="#5398FC" stroke-width="2" stroke-linecap="round" stroke-linejoin="round"/>
<path d="M8.16602 23.3333V6.99992C8.16602 5.76224 8.65768 4.57526 9.53285 3.70009C10.408 2.82492 11.595 2.33325 12.8327 2.33325H50.166C51.4037 2.33325 52.5907 2.82492 53.4658 3.70009C54.341 4.57526 54.8327 5.76224 54.8327 6.99992V32.6666C54.8327 33.9043 54.341 35.0912 53.4658 35.9664C52.5907 36.8416 51.4037 37.3333 50.166 37.3333H31.4994" stroke="#5398FC" stroke-width="2" stroke-linecap="round" stroke-linejoin="round"/>
<path d="M22.166 30.3333H3.49935C2.21068 30.3333 1.16602 31.3779 1.16602 32.6666V51.3332C1.16602 52.6219 2.21068 53.6666 3.49935 53.6666H22.166C23.4547 53.6666 24.4994 52.6219 24.4994 51.3332V32.6666C24.4994 31.3779 23.4547 30.3333 22.166 30.3333Z" stroke="#5398FC" stroke-width="2" stroke-linecap="round" stroke-linejoin="round"/>
<path d="M10.5 35L16.3333 40.8333L10.5 46.6667" stroke="#5398FC" stroke-width="2" stroke-linecap="round" stroke-linejoin="round"/>
<path d="M30.334 53.6667H37.7703C39.7047 53.6667 40.834 51.2237 40.834 49.2917V42" stroke="#5398FC" stroke-width="2" stroke-linecap="round" stroke-linejoin="round"/>
<path d="M45.4994 46.6667L40.8327 42L36.166 46.6667" stroke="#5398FC" stroke-width="2" stroke-linecap="round" stroke-linejoin="round"/>
</svg>
