<svg width="24" height="24" viewBox="0 0 24 24" fill="none" xmlns="http://www.w3.org/2000/svg">
<path d="M23 11.811C23.0075 14.7482 21.8569 17.5699 19.7977 19.6644C17.7386 21.7589 14.9369 22.9574 12 23C10.5657 23.0216 9.14132 22.7582 7.80955 22.225C6.47777 21.6919 5.2651 20.8997 4.24185 19.8943C3.2186 18.8889 2.40515 17.6904 1.84866 16.3682C1.29217 15.046 1.00372 13.6265 1.00004 12.192C0.991839 9.25431 2.14207 6.43182 4.20129 4.33667C6.2605 2.24151 9.06266 1.04262 12 0.999991C13.4346 0.978541 14.8592 1.24214 16.1911 1.7755C17.523 2.30886 18.7357 3.10136 19.759 4.10704C20.7823 5.11272 21.5957 6.31156 22.152 7.63402C22.7084 8.95649 22.9966 10.3763 23 11.811Z" stroke="#D82C2C" stroke-width="1.5" stroke-linecap="round" stroke-linejoin="round"/>
<path d="M12 13V7" stroke="#D82C2C" stroke-width="1.5" stroke-linecap="round" stroke-linejoin="round"/>
<path d="M11.9912 16.005C11.9585 16.0055 11.9262 16.0126 11.8963 16.0257C11.8664 16.0389 11.8394 16.0579 11.8169 16.0817C11.7945 16.1055 11.777 16.1335 11.7655 16.1641C11.7541 16.1947 11.7489 16.2273 11.7502 16.26C11.7525 16.3256 11.7802 16.3878 11.8273 16.4335C11.8745 16.4792 11.9375 16.5048 12.0032 16.505V16.505C12.0359 16.5044 12.0681 16.4972 12.0979 16.484C12.1278 16.4708 12.1547 16.4518 12.1772 16.428C12.1996 16.4043 12.2171 16.3763 12.2286 16.3458C12.2401 16.3152 12.2454 16.2826 12.2442 16.25C12.2422 16.1858 12.2159 16.1248 12.1706 16.0793C12.1253 16.0338 12.0644 16.0073 12.0002 16.005H11.9952" stroke="#D82C2C" stroke-width="1.5" stroke-linecap="round" stroke-linejoin="round"/>
</svg>
