<svg width="24" height="24" viewBox="0 0 24 24" fill="none" xmlns="http://www.w3.org/2000/svg">
<path d="M4.06055 15.375C4.83866 17.205 6.2252 18.7098 7.98544 19.6349C9.74569 20.56 11.7715 20.8484 13.72 20.4513C15.6685 20.0543 17.4199 18.9961 18.6778 17.4561C19.9357 15.916 20.6228 13.9885 20.6228 12C20.6228 10.0115 19.9357 8.08406 18.6778 6.54397C17.4199 5.00388 15.6685 3.94575 13.72 3.5487C11.7715 3.15164 9.74569 3.44006 7.98544 4.36512C6.2252 5.29018 4.83866 6.79506 4.06055 8.62501" stroke="white" stroke-width="1.5" stroke-linecap="round" stroke-linejoin="round"/>
<path d="M12.375 15L15.375 12L12.375 9" stroke="white" stroke-width="1.5" stroke-linecap="round" stroke-linejoin="round"/>
<path d="M15.375 12H3.375" stroke="white" stroke-width="1.5" stroke-linecap="round" stroke-linejoin="round"/>
</svg>
