<?xml version="1.0" encoding="UTF-8"?>
<svg width="80px" height="48px" viewBox="0 0 80 48" version="1.1" xmlns="http://www.w3.org/2000/svg" xmlns:xlink="http://www.w3.org/1999/xlink">
    <title>Artboard</title>
    <g id="Artboard" stroke="none" stroke-width="1" fill="none" fill-rule="evenodd">
        <rect id="Rectangle" fill="#FFFFFF" x="0" y="0" width="80" height="48"></rect>
        <g id="VISA" transform="translate(15.000000, 16.000000)" fill-rule="nonzero">
            <polygon id="polygon9" fill="#00579F" points="21.6666076 15.9484553 17.616259 15.9484553 20.1496372 0.283947445 24.1997643 0.283947445"></polygon>
            <path d="M36.3494813,0.666899967 C35.5505745,0.34995083 34.2834425,0 32.7166373,0 C28.7167879,0 25.9001267,2.13292816 25.8828506,5.18237311 C25.8496275,7.43224686 27.8994977,8.68188141 29.4326367,9.43206081 C30.9996633,10.1986303 31.5323417,10.6989714 31.5323417,11.3822615 C31.5163945,12.431671 30.2660955,12.9154005 29.0999619,12.9154005 C27.482879,12.9154005 26.6164185,12.6660052 25.2996731,12.0821631 L24.7663303,11.8318818 L24.1995428,15.3482232 C25.1495043,15.7810105 26.8997014,16.1650705 28.7167879,16.1819036 C32.9666971,16.1819036 35.7335235,14.0819771 35.7663037,10.8323071 C35.7824723,9.04910829 34.7000611,7.68274964 32.366465,6.5662293 C30.9498286,5.84949456 30.0822606,5.36620804 30.0822606,4.63286171 C30.0988722,3.96618323 30.8160499,3.28333614 32.4151923,3.28333614 C33.7319377,3.24989147 34.6993967,3.56639763 35.4323,3.88312528 L35.798641,4.04946267 L36.3494813,0.666899967 L36.3494813,0.666899967 L36.3494813,0.666899967 Z" id="path11" fill="#00579F"></path>
            <path d="M41.7327439,10.3990768 C42.0663046,9.49917164 43.3498268,6.01627493 43.3498268,6.01627493 C43.3329937,6.0497196 43.6827231,5.09975814 43.8827266,4.51658058 L44.1657881,5.86632764 C44.1657881,5.86632764 44.9328006,9.61589574 45.0993595,10.3990768 C44.4663471,10.3990768 42.5327581,10.3990768 41.7327439,10.3990768 L41.7327439,10.3990768 Z M46.7323895,0.283947445 L43.5994436,0.283947445 C42.6333135,0.283947445 41.8993028,0.567008939 41.4824626,1.58363825 L35.4661877,15.9482339 L39.7160969,15.9482339 C39.7160969,15.9482339 40.415777,14.0148663 40.5661673,13.5984691 C41.0323992,13.5984691 45.1666918,13.5984691 45.7664809,13.5984691 C45.882762,14.1484234 46.2497674,15.9482339 46.2497674,15.9482339 L50,15.9482339 L46.7323895,0.283947445 L46.7323895,0.283947445 L46.7323895,0.283947445 Z" id="path13" fill="#00579F"></path>
            <path d="M14.2332533,0.283947445 L10.2666271,10.9656428 L9.83317534,8.79926998 C9.09982901,6.29955791 6.799899,3.58367369 4.2332976,2.23326216 L7.86658457,15.9318438 L12.1497169,15.9318438 L18.5161642,0.283947445 L14.2332533,0.283947445 L14.2332533,0.283947445 L14.2332533,0.283947445 Z" id="path15" fill="#00579F"></path>
            <path d="M6.58328387,0.283947445 L0.0666678479,0.283947445 L0,0.600453607 C5.08336803,1.9003659 8.44998361,5.03375475 9.83317534,8.79993444 L8.41653894,1.60069281 C8.18331222,0.600232119 7.46657748,0.316949138 6.58328387,0.283947445 L6.58328387,0.283947445 Z" id="path17" fill="#FAA61A"></path>
        </g>
    </g>
</svg>