<svg width="73" height="65" viewBox="0 0 73 65" fill="none" xmlns="http://www.w3.org/2000/svg">
<g clip-path="url(#clip0_27_2113)">
<path d="M53.0534 10.6198C53.0552 10.1119 53.1477 9.60847 53.3267 9.13318C51.661 7.44531 49.6727 6.10991 47.4802 5.20654H34.007C31.1893 6.37202 28.7206 8.24592 26.8404 10.6465H53.0534V10.6198ZM58.3334 19.7531L58.3 19.6664H54.3934C53.5623 19.6646 52.7657 19.3342 52.1774 18.7471C51.5891 18.1601 51.257 17.3642 51.2534 16.5331C51.2534 16.4464 51.2534 16.3731 51.2534 16.2931C51.0709 16.0225 50.9252 15.7288 50.8201 15.4198H24.1538C23.5147 17.1655 23.1569 19.0017 23.0938 20.8597H58.4267C58.3934 20.5197 58.3667 20.1464 58.3334 19.7531ZM25.8137 31.0863H55.6801C56.4635 29.318 57.1315 27.5009 57.68 25.6463H23.7871C24.3423 27.5174 25.0194 29.3502 25.8137 31.1329V31.0863ZM31.0537 41.3328H50.4401C51.4601 39.5395 52.4401 37.7062 53.3868 35.8862H28.0937C29.0404 37.7529 30.0337 39.5862 31.0537 41.3795V41.3328Z" fill="#5398FC"/>
<path d="M32.0127 55.1726L34.5327 64.2058H44.0592L46.5725 55.1726H32.0127Z" stroke="#263243" stroke-width="1.5" stroke-miterlimit="10"/>
<path d="M54.153 7.7532C51.6634 4.68029 48.2828 2.45436 44.4763 1.38162C40.6697 0.308885 36.6243 0.442072 32.8966 1.76286C29.1688 3.08365 25.9419 5.52713 23.6599 8.75713C21.3779 11.9871 20.1528 15.8449 20.1533 19.7997C20.1533 25.0863 24.9399 34.6529 29.7265 42.8995H48.8397C53.6196 34.6529 58.4062 25.0863 58.4062 19.7997C58.4062 19.1331 58.4062 18.5197 58.3129 17.8931" stroke="#263243" stroke-width="1.5" stroke-miterlimit="10"/>
<path d="M24.5937 22.473C24.3422 21.6051 24.1989 20.7094 24.167 19.8064C24.1723 15.7968 25.7679 11.9531 28.6037 9.11852C31.4395 6.28396 35.2839 4.69005 39.2935 4.68652" stroke="#263243" stroke-width="1.5" stroke-miterlimit="10"/>
<path d="M26.9331 28.8664C26.2664 27.4198 25.7931 26.1998 25.4131 25.1064" stroke="#263243" stroke-width="1.5" stroke-miterlimit="10"/>
<path d="M39.293 4.6665H39.4863" stroke="#263243" stroke-width="1.5" stroke-miterlimit="10"/>
<path d="M48.6529 43.2329L44.793 55.2661" stroke="#263243" stroke-width="1.5" stroke-miterlimit="10"/>
<path d="M29.8203 43.2329L33.6803 55.2661" stroke="#263243" stroke-width="1.5" stroke-miterlimit="10"/>
<path d="M34.6465 43.2329L36.3398 55.2661" stroke="#263243" stroke-width="1.5" stroke-miterlimit="10"/>
<path d="M43.8261 43.2329L42.1328 55.2661" stroke="#263243" stroke-width="1.5" stroke-miterlimit="10"/>
<path d="M39.2402 42.9194V55.266" stroke="#263243" stroke-width="1.5" stroke-miterlimit="10"/>
<path d="M69.9665 11.4664C70.2979 10.6929 70.4737 9.86174 70.4838 9.02033C70.4939 8.17893 70.3383 7.34376 70.0256 6.56252C69.713 5.78127 69.2496 5.06926 68.6618 4.46712C68.074 3.86498 67.3734 3.38452 66.5999 3.05315C65.8264 2.72179 64.9952 2.54601 64.1538 2.53587C63.3124 2.52572 62.4773 2.68139 61.696 2.99401C60.9148 3.30663 60.2028 3.77008 59.6006 4.35787C58.9985 4.94566 58.518 5.6463 58.1867 6.41978C57.9034 6.36388 57.6154 6.33486 57.3266 6.33311C56.1933 6.33311 55.1064 6.78332 54.305 7.58472C53.5036 8.38612 53.0534 9.47305 53.0534 10.6064C53.0432 10.7818 53.0432 10.9577 53.0534 11.1331C52.2532 11.3507 51.5604 11.8539 51.1059 12.5475C50.6514 13.241 50.4666 14.077 50.5864 14.8976C50.7062 15.7181 51.1223 16.4664 51.7561 17.0011C52.39 17.5358 53.1977 17.8198 54.0267 17.7997H68.2265C68.9733 17.8028 69.7002 17.5589 70.294 17.1061C70.8879 16.6533 71.3154 16.0169 71.5101 15.296C71.7048 14.575 71.6558 13.8099 71.3706 13.1197C71.0854 12.4295 70.58 11.853 69.9332 11.4797L69.9665 11.4664Z" stroke="#263243" stroke-width="1.5" stroke-miterlimit="10"/>
<path d="M15.2133 31.2463C15.4936 30.6311 15.637 29.9624 15.6333 29.2864C15.6303 28.169 15.2402 27.0872 14.5294 26.2251C13.8187 25.3629 12.8311 24.7737 11.7349 24.5576C10.6386 24.3415 9.50137 24.5119 8.51658 25.0398C7.5318 25.5677 6.76031 26.4204 6.33342 27.453C6.11369 27.4114 5.8904 27.3913 5.66676 27.393C4.81277 27.393 3.99379 27.7323 3.38993 28.3361C2.78607 28.94 2.44682 29.759 2.44682 30.613C2.44021 30.744 2.44021 30.8753 2.44682 31.0063C1.8534 31.1774 1.34205 31.5577 1.00755 32.0768C0.67305 32.596 0.538046 33.2188 0.627548 33.8298C0.717051 34.4409 1.02499 34.9988 1.49432 35.4002C1.96365 35.8016 2.56259 36.0193 3.18013 36.013H13.8867C14.4497 36.0145 14.9975 35.8299 15.4447 35.4879C15.8919 35.1458 16.2136 34.6656 16.3596 34.1219C16.5056 33.5781 16.4678 33.0013 16.2521 32.4813C16.0363 31.9612 15.6547 31.527 15.1667 31.2463H15.2133Z" stroke="#263243" stroke-width="1.5" stroke-miterlimit="10"/>
</g>
<defs>
<clipPath id="clip0_27_2113">
<rect width="72.3192" height="64.8726" fill="white"/>
</clipPath>
</defs>
</svg>
