<svg width="49" height="84" viewBox="0 0 49 84" fill="none" xmlns="http://www.w3.org/2000/svg">
<path d="M17.8672 64.0923C18.2016 65.0525 18.5941 65.998 18.9285 66.9215H32.6753C33.0534 65.998 33.4023 65.0525 33.7367 64.0923H17.8672Z" fill="#54B5C4"/>
<path d="M35.184 59.262C36.5884 53.7722 37.2944 48.1246 37.285 42.4552C37.285 27.9573 32.8506 14.918 25.8063 5.90991C18.7548 14.918 14.3203 27.9573 14.3203 42.4552C14.3145 48.1244 15.0205 53.7715 16.4213 59.262H35.184ZM24.3887 17.8645C24.9112 17.863 25.4225 18.018 25.8575 18.3098C26.2926 18.6016 26.632 19.0171 26.8326 19.5035C27.0332 19.99 27.0861 20.5256 26.9845 21.0424C26.8829 21.5592 26.6314 22.0339 26.2619 22.4064C25.8924 22.779 25.4216 23.0325 24.909 23.135C24.3964 23.2374 23.8652 23.1841 23.3828 22.9818C22.9003 22.7795 22.4883 22.4374 22.1989 21.9987C21.9095 21.56 21.7557 21.0446 21.7571 20.5178C21.759 19.8147 22.0369 19.1409 22.53 18.6437C23.0232 18.1466 23.6914 17.8664 24.3887 17.8645V17.8645ZM24.6287 27.195C26.3051 27.195 27.9439 27.6963 29.3378 28.6353C30.7318 29.5744 31.8182 30.9092 32.4597 32.4708C33.1013 34.0324 33.2692 35.7508 32.9421 37.4086C32.615 39.0665 31.8078 40.5892 30.6223 41.7845C29.4369 42.9797 27.9265 43.7936 26.2822 44.1234C24.638 44.4532 22.9337 44.2839 21.3849 43.6371C19.836 42.9902 18.5122 41.8948 17.5808 40.4894C16.6494 39.084 16.1523 37.4316 16.1523 35.7413C16.1523 34.619 16.3716 33.5077 16.7975 32.4708C17.2235 31.4339 17.8479 30.4918 18.635 29.6982C19.4221 28.9046 20.3565 28.2751 21.3849 27.8456C22.4133 27.4161 23.5155 27.195 24.6287 27.195V27.195Z" fill="#92C3BB"/>
<path d="M32.0288 66.9507C35.54 58.8639 37.3305 50.1247 37.2847 41.2971C37.2847 26.1029 32.2323 12.4405 24.1994 3C16.2029 12.4405 11.1141 26.1029 11.1141 41.2971C11.0683 50.1247 12.8589 58.8639 16.3701 66.9507H32.0288Z" stroke="#263243" stroke-width="1.5" stroke-miterlimit="10"/>
<path d="M33.2997 35.5068C33.2997 37.2841 32.777 39.0215 31.7976 40.4992C30.8183 41.977 29.4264 43.1287 27.7979 43.8089C26.1693 44.489 24.3773 44.667 22.6484 44.3202C20.9196 43.9735 19.3315 43.1177 18.0851 41.8609C16.8386 40.6042 15.9898 39.0031 15.6459 37.2599C15.302 35.5168 15.4785 33.71 16.153 32.068C16.8276 30.426 17.97 29.0226 19.4356 28.0352C20.9013 27.0478 22.6244 26.5208 24.3871 26.5208C26.7509 26.5208 29.0179 27.4675 30.6893 29.1527C32.3607 30.8379 33.2997 33.1236 33.2997 35.5068V35.5068Z" stroke="#263243" stroke-width="1.5" stroke-miterlimit="10"/>
<path d="M27.0277 20.5178C27.0291 21.0443 26.8756 21.5595 26.5866 21.998C26.2975 22.4365 25.8858 22.7786 25.4037 22.9811C24.9217 23.1836 24.3908 23.2374 23.8785 23.1356C23.3661 23.0337 22.8952 22.7809 22.5255 22.4091C22.1557 22.0373 21.9037 21.5632 21.8012 21.0469C21.6988 20.5306 21.7506 19.9953 21.9502 19.5087C22.1497 19.0221 22.4879 18.6061 22.922 18.3134C23.3561 18.0208 23.8666 17.8645 24.3888 17.8645C25.0868 17.8664 25.7559 18.1464 26.2501 18.6433C26.7444 19.1403 27.0239 19.814 27.0277 20.5178V20.5178Z" stroke="#263243" stroke-width="1.5" stroke-miterlimit="10"/>
<path d="M24.3882 41.1213C23.2851 41.1213 22.2069 40.7914 21.2898 40.1733C20.3727 39.5553 19.6581 38.6768 19.2363 37.6492C18.8145 36.6215 18.7044 35.4908 18.9202 34.4C19.1359 33.3093 19.6677 32.3076 20.4482 31.5217C21.2287 30.7358 22.2229 30.2009 23.305 29.9848C24.3871 29.7687 25.5083 29.8811 26.5271 30.3077C27.5458 30.7343 28.4161 31.4561 29.0279 32.3815C29.6397 33.307 29.9655 34.3946 29.964 35.5068C29.9621 36.9965 29.3738 38.4246 28.3284 39.4773C27.2829 40.53 25.8658 41.1213 24.3882 41.1213V41.1213Z" stroke="#263243" stroke-width="1.5" stroke-miterlimit="10"/>
<path d="M24.5957 82.1717V70.5588" stroke="#263243" stroke-width="1.5" stroke-miterlimit="10"/>
<path d="M20.7246 76.3653V70.5588" stroke="#263243" stroke-width="1.5" stroke-miterlimit="10"/>
<path d="M28.4668 76.3653V70.5588" stroke="#263243" stroke-width="1.5" stroke-miterlimit="10"/>
<path d="M15.2355 64.7445L7.96596 70.8794C7.70174 71.1005 7.3806 71.2412 7.04005 71.2851C6.6995 71.3291 6.35356 71.2746 6.04261 71.1278C5.73166 70.981 5.46859 70.7481 5.28397 70.4563C5.09935 70.1644 5.00086 69.8256 5 69.4795V57.8034C4.99958 56.7716 5.224 55.7523 5.65739 54.8176C6.09077 53.8829 6.7225 53.0556 7.50797 52.3942L11.31 49.1912" stroke="#263243" stroke-width="1.5" stroke-miterlimit="10"/>
<path d="M32.9883 64.7445L40.2579 70.8794C40.5221 71.1005 40.8431 71.2412 41.1837 71.2851C41.5242 71.3291 41.8702 71.2746 42.1811 71.1278C42.4921 70.981 42.7552 70.7481 42.9399 70.4563C43.1245 70.1644 43.223 69.8256 43.2238 69.4795V57.8034C43.2243 56.7716 42.9998 55.7523 42.5664 54.8176C42.1331 53.8829 41.5013 53.0556 40.7159 52.3942L36.9211 49.1912" stroke="#263243" stroke-width="1.5" stroke-miterlimit="10"/>
<path d="M14.9453 62.0032H33.6645" stroke="#263243" stroke-width="1.5" stroke-miterlimit="10"/>
</svg>
