<svg width="73" height="84" viewBox="0 0 73 84" fill="none" xmlns="http://www.w3.org/2000/svg">
<g clip-path="url(#clip0_217_719)">
<path d="M53.0534 20.6198C53.0552 20.1119 53.1477 19.6085 53.3267 19.1332C51.661 17.4453 49.6727 16.1099 47.4802 15.2065H34.007C31.1893 16.372 28.7206 18.2459 26.8404 20.6465H53.0534V20.6198ZM58.3334 29.7531L58.3 29.6664H54.3934C53.5623 29.6646 52.7657 29.3342 52.1774 28.7471C51.5891 28.1601 51.257 27.3642 51.2534 26.5331C51.2534 26.4464 51.2534 26.3731 51.2534 26.2931C51.0709 26.0225 50.9252 25.7288 50.8201 25.4198H24.1538C23.5147 27.1655 23.1569 29.0017 23.0938 30.8597H58.4267C58.3934 30.5197 58.3667 30.1464 58.3334 29.7531ZM25.8137 41.0863H55.6801C56.4635 39.318 57.1315 37.5009 57.68 35.6463H23.7871C24.3423 37.5174 25.0194 39.3502 25.8137 41.1329V41.0863ZM31.0537 51.3328H50.4401C51.4601 49.5395 52.4401 47.7062 53.3868 45.8862H28.0937C29.0404 47.7529 30.0337 49.5862 31.0537 51.3795V51.3328Z" fill="#5398FC"/>
<path d="M32.0117 65.1726L34.5317 74.2058H44.0583L46.5716 65.1726H32.0117Z" stroke="#263243" stroke-width="1.5" stroke-miterlimit="10"/>
<path d="M54.152 17.7532C51.6624 14.6803 48.2818 12.4544 44.4753 11.3816C40.6687 10.3089 36.6233 10.4421 32.8956 11.7629C29.1678 13.0837 25.941 15.5271 23.6589 18.7571C21.3769 21.9871 20.1519 25.8449 20.1523 29.7997C20.1523 35.0863 24.9389 44.6529 29.7256 52.8995H48.8387C53.6186 44.6529 58.4052 35.0863 58.4052 29.7997C58.4052 29.1331 58.4053 28.5197 58.3119 27.8931" stroke="#263243" stroke-width="1.5" stroke-miterlimit="10"/>
<path d="M24.5946 32.473C24.3432 31.6051 24.1999 30.7094 24.168 29.8064C24.1733 25.7968 25.7689 21.9531 28.6047 19.1185C31.4405 16.284 35.2849 14.6901 39.2945 14.6865" stroke="#263243" stroke-width="1.5" stroke-miterlimit="10"/>
<path d="M26.9341 38.8664C26.2674 37.4198 25.7941 36.1998 25.4141 35.1064" stroke="#263243" stroke-width="1.5" stroke-miterlimit="10"/>
<path d="M39.293 14.6665H39.4863" stroke="#263243" stroke-width="1.5" stroke-miterlimit="10"/>
<path d="M48.6529 53.2329L44.793 65.2661" stroke="#263243" stroke-width="1.5" stroke-miterlimit="10"/>
<path d="M29.8203 53.2329L33.6803 65.2661" stroke="#263243" stroke-width="1.5" stroke-miterlimit="10"/>
<path d="M34.6465 53.2329L36.3398 65.2661" stroke="#263243" stroke-width="1.5" stroke-miterlimit="10"/>
<path d="M43.8261 53.2329L42.1328 65.2661" stroke="#263243" stroke-width="1.5" stroke-miterlimit="10"/>
<path d="M39.2402 52.9194V65.266" stroke="#263243" stroke-width="1.5" stroke-miterlimit="10"/>
<path d="M69.9665 21.4664C70.2979 20.6929 70.4737 19.8617 70.4838 19.0203C70.4939 18.1789 70.3383 17.3438 70.0256 16.5625C69.713 15.7813 69.2496 15.0693 68.6618 14.4671C68.074 13.865 67.3734 13.3845 66.5999 13.0532C65.8264 12.7218 64.9952 12.546 64.1538 12.5359C63.3124 12.5257 62.4773 12.6814 61.696 12.994C60.9148 13.3066 60.2028 13.7701 59.6006 14.3579C58.9985 14.9457 58.518 15.6463 58.1867 16.4198C57.9034 16.3639 57.6154 16.3349 57.3266 16.3331C56.1933 16.3331 55.1064 16.7833 54.305 17.5847C53.5036 18.3861 53.0534 19.4731 53.0534 20.6064C53.0432 20.7818 53.0432 20.9577 53.0534 21.1331C52.2532 21.3507 51.5604 21.8539 51.1059 22.5475C50.6514 23.241 50.4666 24.077 50.5864 24.8976C50.7062 25.7181 51.1223 26.4664 51.7561 27.0011C52.39 27.5358 53.1977 27.8198 54.0267 27.7997H68.2265C68.9733 27.8028 69.7002 27.5589 70.294 27.1061C70.8879 26.6533 71.3154 26.0169 71.5101 25.296C71.7048 24.575 71.6558 23.8099 71.3706 23.1197C71.0854 22.4295 70.58 21.853 69.9332 21.4797L69.9665 21.4664Z" stroke="#263243" stroke-width="1.5" stroke-miterlimit="10"/>
<path d="M15.2133 41.2463C15.4936 40.6311 15.637 39.9624 15.6333 39.2864C15.6303 38.169 15.2402 37.0872 14.5294 36.2251C13.8187 35.3629 12.8311 34.7737 11.7349 34.5576C10.6386 34.3415 9.50137 34.5119 8.51658 35.0398C7.5318 35.5677 6.76031 36.4204 6.33342 37.453C6.11369 37.4114 5.8904 37.3913 5.66676 37.393C4.81277 37.393 3.99379 37.7323 3.38993 38.3361C2.78607 38.94 2.44682 39.759 2.44682 40.613C2.44021 40.744 2.44021 40.8753 2.44682 41.0063C1.8534 41.1774 1.34205 41.5577 1.00755 42.0768C0.67305 42.596 0.538046 43.2188 0.627548 43.8298C0.717051 44.4409 1.02499 44.9988 1.49432 45.4002C1.96365 45.8016 2.56259 46.0193 3.18013 46.013H13.8867C14.4497 46.0145 14.9975 45.8299 15.4447 45.4879C15.8919 45.1458 16.2136 44.6656 16.3596 44.1219C16.5056 43.5781 16.4678 43.0013 16.2521 42.4813C16.0363 41.9612 15.6547 41.527 15.1667 41.2463H15.2133Z" stroke="#263243" stroke-width="1.5" stroke-miterlimit="10"/>
</g>
<defs>
<clipPath id="clip0_217_719">
<rect width="72.3192" height="64.8726" fill="white" transform="translate(0 10)"/>
</clipPath>
</defs>
</svg>
