<?xml version="1.0" encoding="UTF-8"?>
<svg width="135px" height="20px" viewBox="0 0 135 20" version="1.1" xmlns="http://www.w3.org/2000/svg" xmlns:xlink="http://www.w3.org/1999/xlink">
    <title>speech-logo-wording</title>
    <g id="speech-logo-wording" stroke="none" stroke-width="1" fill="none" fill-rule="evenodd">
        <g transform="translate(1.000000, 0.000000)" fill="#FFFFFF" fill-rule="nonzero">
            <path d="M0,11.162 L2.3014,10.4534 C2.386,11.3353 2.7981,12.1536 3.4563,12.7467 C4.1144,13.3399 4.971,13.6649 5.8569,13.6577 C7.6441,13.6577 8.8042,12.8174 8.8042,11.5257 C8.8042,7.95133 0.5581,9.91409 0.5581,4.48361 C0.5581,2.09445 2.7717,0.438965 5.7252,0.438965 C8.5471,0.438965 10.7418,1.94395 11.1933,4.20142 L8.9359,5.12323 C8.8045,4.38263 8.404,3.71676 7.8113,3.25371 C7.2186,2.79066 6.4756,2.56313 5.7252,2.61492 C4.0886,2.61492 3.0978,3.30471 3.0978,4.4648 C3.0978,7.50612 11.3689,5.39288 11.3689,11.463 C11.3689,14.0904 9.1491,15.8525 5.7691,15.8525 C4.4015,15.9022 3.0624,15.4532 2.0012,14.5892 C0.9399,13.7252 0.2287,12.505 0,11.1557" id="Path"></path>
            <path d="M12.9375,4.84095 L15.2891,4.84095 L15.2891,6.22051 C15.6899,5.71357 16.2053,5.30889 16.7928,5.03965 C17.3803,4.77041 18.0233,4.64429 18.669,4.67163 C21.8734,4.67163 23.7671,6.99808 23.7671,10.2714 C23.7671,13.5448 21.7918,15.8649 18.5373,15.8649 C17.9252,15.8805 17.3172,15.7616 16.7559,15.5168 C16.1947,15.2719 15.694,14.907 15.2891,14.4477 L15.2891,19.6149 L12.9375,19.6149 L12.9375,4.84095 Z M18.2802,13.8207 C20.1615,13.8207 21.4156,12.4035 21.4156,10.2714 C21.4156,8.13935 20.1615,6.7159 18.2802,6.7159 C16.399,6.7159 15.1449,8.11427 15.1449,10.2714 C15.1449,12.4286 16.399,13.8207 18.2802,13.8207 Z" id="Shape"></path>
            <path d="M30.1193,4.67167 C30.8173,4.63336 31.5163,4.74007 32.1713,4.98505 C32.8263,5.23004 33.4243,5.60799 33.9253,6.09514 C34.4273,6.58229 34.8233,7.16807 35.0873,7.8156 C35.3523,8.46313 35.4793,9.1584 35.4623,9.8576 C35.4623,10.1837 35.4623,10.6352 35.4183,10.8296 L27.1283,10.8296 C27.3413,12.7108 28.5513,13.8646 30.2633,13.8646 C31.6873,13.8646 32.6963,13.1999 32.9783,12.0147 L35.1983,12.5728 C34.6153,14.661 32.7653,15.865 30.2253,15.865 C26.7773,15.865 24.8203,13.1999 24.8203,10.2715 C24.8203,7.34301 26.6703,4.67167 30.1133,4.67167 L30.1193,4.67167 Z M32.9603,9.0612 C32.9423,8.7079 32.8543,8.36166 32.7013,8.04297 C32.5473,7.72428 32.3313,7.43959 32.0663,7.20575 C31.8003,6.97191 31.4913,6.79365 31.1553,6.68152 C30.8203,6.56938 30.4653,6.52565 30.1133,6.5529 C28.6263,6.5529 27.6043,7.45589 27.2283,9.0612 L32.9603,9.0612 Z" id="Shape"></path>
            <path d="M41.8133,4.67167 C42.5113,4.63336 43.2103,4.74007 43.8653,4.98505 C44.5203,5.23004 45.1173,5.60799 45.6193,6.09514 C46.1213,6.58229 46.5173,7.16807 46.7813,7.8156 C47.0453,8.46313 47.1733,9.1584 47.1553,9.8576 C47.1553,10.1837 47.1553,10.6352 47.1113,10.8296 L38.8213,10.8296 C39.0353,12.7108 40.2393,13.8646 41.9573,13.8646 C43.3803,13.8646 44.3903,13.1999 44.6723,12.0147 L46.8863,12.5728 C46.3093,14.661 44.4533,15.865 41.9133,15.865 C38.4703,15.865 36.5083,13.1999 36.5083,10.2715 C36.5083,7.34301 38.3893,4.67167 41.8063,4.67167 L41.8133,4.67167 Z M44.6473,9.0612 C44.6303,8.70847 44.5423,8.36279 44.3893,8.04454 C44.2363,7.72629 44.0203,7.4419 43.7563,7.20814 C43.4913,6.97438 43.1823,6.79598 42.8473,6.68345 C42.5123,6.57091 42.1593,6.52652 41.8063,6.5529 C40.3203,6.5529 39.2983,7.45589 38.9223,9.0612 L44.6473,9.0612 Z" id="Shape"></path>
            <path d="M48.2093,10.2714 C48.2093,6.9291 50.4033,4.67163 53.6583,4.67163 C56.3233,4.67163 58.2423,6.08882 58.6063,8.33375 L56.3233,8.78525 C56.2173,8.18208 55.8933,7.63866 55.4143,7.25746 C54.9353,6.87626 54.3323,6.68364 53.7213,6.7159 C51.8393,6.7159 50.6423,8.11427 50.6423,10.2714 C50.6423,12.4286 51.8963,13.8207 53.7213,13.8207 C54.3283,13.8656 54.9313,13.6833 55.4123,13.3091 C55.8933,12.9348 56.2183,12.3953 56.3233,11.7952 L58.6313,12.253 C58.1793,14.5105 56.3043,15.8649 53.6583,15.8649 C50.4033,15.8649 48.2093,13.6075 48.2093,10.2714 Z" id="Path"></path>
            <path d="M60.2243,0.451416 L62.5703,0.451416 L62.5703,6.72218 C62.9133,6.08392 63.4283,5.55429 64.0563,5.19307 C64.6843,4.83185 65.4013,4.65342 66.1253,4.6779 C68.5773,4.6779 70.1953,6.20796 70.1953,8.57204 L70.1953,15.7019 L67.8503,15.7019 L67.8503,9.10506 C67.8733,8.7898 67.8273,8.47327 67.7153,8.1775 C67.6043,7.88172 67.4293,7.61381 67.2043,7.39239 C66.9783,7.17097 66.7073,7.00135 66.4093,6.89535 C66.1113,6.78935 65.7943,6.74952 65.4793,6.77861 C63.6673,6.77861 62.5703,8.35256 62.5703,10.9988 L62.5703,15.6956 L60.2243,15.6956 L60.2243,0.451416 Z" id="Path"></path>
            <path d="M72.4273,4.84109 L74.7733,4.84109 L74.7733,6.67214 C75.0443,6.05909 75.4923,5.54107 76.0593,5.18462 C76.6273,4.82816 77.2883,4.64956 77.9583,4.67177 C79.7023,4.67177 80.9493,5.42425 81.4013,6.82263 C81.7353,6.16491 82.2473,5.61443 82.8793,5.23409 C83.5113,4.85374 84.2383,4.65888 84.9753,4.67177 C87.3023,4.67177 88.8133,6.17675 88.8133,8.37151 L88.8133,15.6958 L86.4613,15.6958 L86.4613,8.95471 C86.4613,7.60022 85.6903,6.69723 84.3113,6.69723 C82.6933,6.69723 81.8023,8.11442 81.8023,10.2026 L81.8023,15.6958 L79.4763,15.6958 L79.4763,8.95471 C79.4763,7.60022 78.7233,6.69723 77.3443,6.69723 C75.7323,6.69723 74.8353,8.1395 74.8353,10.2026 L74.8353,15.6958 L72.4273,15.6958 L72.4273,4.84109 Z" id="Path"></path>
            <path d="M95.1533,6.52151 C94.5623,6.4801 93.9783,6.67465 93.5313,7.06253 C93.0833,7.45041 92.8073,7.99999 92.7643,8.59086 L90.6503,8.20207 C90.9953,6.07001 92.8453,4.67163 95.1533,4.67163 C97.9063,4.67163 99.7993,6.22052 99.7993,8.93576 L99.7993,15.6956 L97.5113,15.6956 L97.5113,14.0402 C97.1493,14.6116 96.6473,15.0799 96.0513,15.3997 C95.4563,15.7194 94.7883,15.8797 94.1123,15.8649 C91.9553,15.8649 90.4683,14.5105 90.4683,12.6606 C90.4683,10.5285 92.1303,9.38724 95.4853,9.04235 L97.5293,8.82915 L97.5293,8.65357 C97.5293,7.3179 96.6013,6.49642 95.1843,6.49642 L95.1533,6.52151 Z M94.6013,14.0213 C96.4323,14.0213 97.5113,12.7672 97.5293,10.9863 L97.5293,10.5348 L95.4603,10.7731 C93.6983,10.9612 92.7953,11.6071 92.7953,12.5603 C92.7953,13.4194 93.5043,14.0213 94.6013,14.0213 Z" id="Shape"></path>
            <path d="M106.4593,15.865 C104.4093,15.865 102.8853,14.7488 102.8853,12.2719 L102.8853,6.84766 L101.0043,6.84766 L101.0043,4.84103 L102.8853,4.84103 L102.8853,1.61157 L105.2303,1.61157 L105.2303,4.84103 L108.0273,4.84103 L108.0273,6.84766 L105.2303,6.84766 L105.2303,12.1402 C105.2003,12.3492 105.2173,12.5622 105.2793,12.764 C105.3413,12.9657 105.4473,13.1514 105.5893,13.3077 C105.7313,13.4639 105.9053,13.587 106.1003,13.6681 C106.2953,13.7492 106.5053,13.7863 106.7163,13.7769 C107.1673,13.7863 107.6143,13.6986 108.0273,13.5198 L108.1773,15.6079 C107.6223,15.7854 107.0423,15.8722 106.4593,15.865" id="Path"></path>
            <path d="M110.7853,0 C111.1873,0 111.5733,0.159881 111.8583,0.444472 C112.1433,0.729063 112.3023,1.11504 112.3023,1.51751 C112.3023,1.91999 112.1433,2.30598 111.8583,2.59057 C111.5733,2.87517 111.1873,3.03505 110.7853,3.03505 C110.3823,3.03505 109.9963,2.87517 109.7123,2.59057 C109.4273,2.30598 109.2673,1.91999 109.2673,1.51751 C109.2673,1.11504 109.4273,0.729063 109.7123,0.444472 C109.9963,0.159881 110.3823,0 110.7853,0 Z M109.6183,4.84103 L111.9703,4.84103 L111.9703,15.6957 L109.6183,15.6957 L109.6183,4.84103 Z" id="Shape"></path>
            <path d="M113.6273,10.2714 C113.6273,6.9291 115.8213,4.67163 119.0763,4.67163 C121.7413,4.67163 123.6603,6.08882 124.0243,8.33375 L121.7413,8.78525 C121.6353,8.18208 121.3113,7.63866 120.8323,7.25746 C120.3533,6.87626 119.7503,6.68364 119.1393,6.7159 C117.2573,6.7159 116.0603,8.11427 116.0603,10.2714 C116.0603,12.4286 117.3143,13.8207 119.1393,13.8207 C119.7463,13.8656 120.3493,13.6833 120.8303,13.3091 C121.3113,12.9348 121.6353,12.3953 121.7413,11.7952 L124.0493,12.253 C123.5973,14.5105 121.7223,15.8649 119.0763,15.8649 C115.8213,15.8649 113.6273,13.6075 113.6273,10.2714 Z" id="Path"></path>
            <path d="M124.5493,12.6794 L126.4863,11.8642 C126.6283,12.476 126.9743,13.021 127.4683,13.4087 C127.9623,13.7965 128.5743,14.0038 129.2013,13.9963 C130.3183,13.9963 131.0833,13.3692 131.0833,12.5728 C131.0833,10.2275 125.0383,11.7576 125.0383,7.64398 C125.0383,5.93834 126.5243,4.67163 128.8693,4.67163 C130.9133,4.67163 132.6323,5.75021 133.1083,7.34298 L131.1703,8.15817 C131.0303,7.66462 130.7303,7.2317 130.3173,6.92748 C129.9033,6.62327 129.4013,6.46502 128.8883,6.47761 C127.8533,6.47761 127.2073,6.89149 127.2073,7.60008 C127.2073,9.68825 133.3033,8.09547 133.3033,12.554 C133.3033,14.4352 131.6663,15.8649 129.2143,15.8649 C128.1973,15.9144 127.1923,15.6298 126.3523,15.0547 C125.5123,14.4795 124.8833,13.6453 124.5613,12.6794" id="Path"></path>
        </g>
    </g>
</svg>