<?xml version="1.0" encoding="UTF-8"?>
<svg width="64px" height="16px" viewBox="0 0 64 16" version="1.1" xmlns="http://www.w3.org/2000/svg" xmlns:xlink="http://www.w3.org/1999/xlink">
    <title>speech-logo-symbol</title>
    <g id="speech-logo-symbol" stroke="none" stroke-width="1" fill="none" fill-rule="evenodd">
        <g fill-rule="nonzero">
            <path d="M24.3136279,7.55745 C24.3148279,5.68624 25.0100279,3.88199 26.2649279,2.4939 C26.1274279,2.63818 25.9832279,2.78934 25.8389279,2.95423 C24.8794279,4.03657 23.6697279,4.86783 22.3153279,5.37557 C20.9609279,5.88331 19.5029279,6.05213 18.0684279,5.86731 C24.2518279,12.20193 26.9382279,13.76153 28.8619279,14.48973 C27.5107279,13.90323 26.3603279,12.93463 25.5523279,11.70303 C24.7442279,10.47143 24.3137279,9.03043 24.3136279,7.55745" id="Path" fill="#CACACA"></path>
            <path d="M34.9977279,0.68022 L34.8809279,0.62524 L34.9977279,0.68022 Z" id="Path" fill="#92C3BB"></path>
            <path d="M34.8809279,0.62524 L35.7259279,1.05809 C36.6862279,1.62788 37.5084279,2.40339 38.1332279,3.32887 C38.7580279,4.25434 39.1699279,5.30678 39.3394279,6.41048 C39.5089279,7.51418 39.4318279,8.64173 39.1135279,9.71203 C38.7951279,10.78233 38.2436279,11.76883 37.4985279,12.60053 C37.6359279,12.46313 37.7665279,12.31883 37.9039279,12.16763 C38.8595279,11.08603 40.0655279,10.25503 41.4165279,9.74723 C42.7675279,9.23933 44.2223279,9.07023 45.6538279,9.25463 C39.3879279,2.81693 36.8046279,1.35352 34.8809279,0.62524" id="Path" fill="#CACACA"></path>
            <path d="M42.2383279,5.90866 C50.4829279,14.59293 54.1723279,15.06013 56.0617279,15.06013 C58.0442279,15.05473 59.9434279,14.26193 61.3413279,12.85623 C62.7393279,11.45043 63.5216279,9.54693 63.5162556,7.56445 C63.5107279,5.58193 62.7179279,3.68278 61.3122279,2.2848 C59.9065279,0.88681 58.0030279,0.1045 56.0205279,0.10997 C55.5876279,0.10997 52.9150279,-0.15797 50.1737279,2.97497 C47.0407279,6.56137 42.2383279,5.90866 42.2383279,5.90866 L42.2383279,5.90866 Z M56.2060279,3.62765 C56.9893279,3.61812 57.7577279,3.84169 58.4137279,4.26994 C59.0697279,4.69819 59.5835279,5.31179 59.8899279,6.03277 C60.1963279,6.75374 60.2814279,7.54952 60.1345279,8.31899 C59.9875279,9.08843 59.6151279,9.79683 59.0646279,10.35423 C58.5140279,10.91153 57.8102279,11.29253 57.0426279,11.44893 C56.2750279,11.60533 55.4782279,11.52993 54.7536279,11.23243 C54.0289279,10.93483 53.4090279,10.42853 52.9728279,9.77793 C52.5365279,9.12723 52.3036279,8.36156 52.3035043,7.57819 C52.2999279,6.53763 52.7083279,5.53794 53.4396279,4.79766 C54.1708279,4.05738 55.1654279,3.63673 56.2060279,3.62765" id="Shape" fill="#FFFFFF"></path>
            <path d="M31.8720279,0 C30.3773279,0 28.9161279,0.44325 27.6733279,1.27369 C26.4304279,2.10412 25.4617279,3.28445 24.8897279,4.66541 C24.3177279,6.04637 24.1681279,7.56593 24.4597279,9.03193 C24.7513279,10.49793 25.4711279,11.84463 26.5280279,12.90153 C27.5850279,13.95843 28.9316279,14.67823 30.3976279,14.96983 C31.8636279,15.26143 33.3832279,15.11183 34.7641279,14.53983 C36.1451279,13.96783 37.3254279,12.99913 38.1559279,11.75633 C38.9863279,10.51343 39.4295279,9.05233 39.4295279,7.55754 C39.4295279,5.55316 38.6333279,3.63087 37.2160279,2.21356 C35.7987279,0.79624 33.8764279,0 31.8720279,0 Z M31.8720279,11.51493 C31.0873279,11.52453 30.3175279,11.30053 29.6604279,10.87153 C29.0033279,10.44253 28.4886279,9.82783 28.1817279,9.10563 C27.8748279,8.38337 27.7895279,7.58619 27.9368279,6.81539 C28.0840279,6.04459 28.4571279,5.33497 29.0085279,4.7767 C29.5600279,4.21842 30.2650279,3.83671 31.0340279,3.68008 C31.8029279,3.52344 32.6011279,3.59894 33.3270279,3.897 C34.0530279,4.19507 34.6739279,4.70221 35.1109279,5.35401 C35.5479279,6.0058 35.7813279,6.7728 35.7813279,7.55754 C35.7849279,8.0742 35.6866279,8.58653 35.4921279,9.06513 C35.2975279,9.54373 35.0104279,9.97933 34.6473279,10.34693 C34.2842279,10.71453 33.8522279,11.00683 33.3759279,11.20723 C32.8997279,11.40773 32.3887279,11.51223 31.8720279,11.51493" id="Shape" fill="#FFFFFF"></path>
            <path d="M21.5104279,9.23393 C13.2040279,0.53586 9.57642787,0.0824 7.68016787,0.0824 C6.67990787,0.05496 5.68430787,0.22863 4.75240787,0.5931 C3.82050787,0.95757 2.97127787,1.50541 2.25504787,2.20419 C1.53880787,2.90296 0.970165866,3.73842 0.582814866,4.66105 C0.195464866,5.58367 -0.00270405419,6.57469 2.78658903e-05,7.57532 C0.00281667581,8.57593 0.206440866,9.56583 0.598875866,10.48633 C0.991310866,11.40673 1.56456787,12.23913 2.28464787,12.93393 C3.00472787,13.62873 3.85696787,14.17193 4.79086787,14.53123 C5.72475787,14.89053 6.72129787,15.05873 7.72138787,15.02573 C8.15422787,15.02573 10.8268279,15.30053 13.5681279,12.16763 C16.7011279,8.58123 21.5104279,9.23393 21.5104279,9.23393 Z M7.53587787,11.51493 C6.75065787,11.52723 5.97955787,11.30553 5.32067787,10.87823 C4.66180787,10.45093 4.14496787,9.83723 3.83593787,9.11523 C3.52690787,8.39332 3.43965787,7.59574 3.58529787,6.82405 C3.73093787,6.05236 4.10288787,5.34145 4.65380787,4.7818 C5.20471787,4.22214 5.90966787,3.83905 6.67896787,3.68128 C7.44826787,3.5235 8.24712787,3.59817 8.97385787,3.89579 C9.70058787,4.19341 10.3223279,4.70054 10.7600279,5.3526 C11.1976279,6.00467 11.4313279,6.77219 11.4314828,7.5575 C11.4369279,8.59923 11.0293279,9.60073 10.2978279,10.34243 C9.56637787,11.08423 8.57073787,11.50583 7.52901787,11.51493" id="Shape" fill="#FFFFFF"></path>
        </g>
    </g>
</svg>